<mxfile host="Electron" modified="2025-06-09T14:52:59.889Z" agent="Mozilla/5.0 (Windows NT 10.0; Win64; x64) AppleWebKit/537.36 (KHTML, like Gecko) draw.io/22.1.21 Chrome/120.0.6099.109 Electron/28.1.0 Safari/537.36" etag="yPQ8v6z-9ulShNZR5lpV" version="22.1.21" type="device" pages="5">
  <diagram name="Главная" id="WVCnz241iXT8DgmNW43R">
    <mxGraphModel dx="794" dy="519" grid="1" gridSize="10" guides="1" tooltips="1" connect="1" arrows="1" fold="1" page="1" pageScale="1" pageWidth="827" pageHeight="1169" math="0" shadow="0">
      <root>
        <mxCell id="0" />
        <mxCell id="1" parent="0" />
        <mxCell id="9Bq7WmWvDdRx8j_mDBdu-3" value="otus-spine-sw01" style="sketch=0;points=[[0.015,0.015,0],[0.985,0.015,0],[0.985,0.985,0],[0.015,0.985,0],[0.25,0,0],[0.5,0,0],[0.75,0,0],[1,0.25,0],[1,0.5,0],[1,0.75,0],[0.75,1,0],[0.5,1,0],[0.25,1,0],[0,0.75,0],[0,0.5,0],[0,0.25,0]];verticalLabelPosition=middle;html=1;verticalAlign=middle;aspect=fixed;align=right;pointerEvents=1;shape=mxgraph.cisco19.rect;prIcon=l2_switch;fillColor=#dae8fc;strokeColor=#6c8ebf;labelPosition=left;" parent="1" vertex="1">
          <mxGeometry x="610" y="240" width="50" height="50" as="geometry" />
        </mxCell>
        <mxCell id="9Bq7WmWvDdRx8j_mDBdu-6" value="otus-leaf-sw01" style="sketch=0;points=[[0.015,0.015,0],[0.985,0.015,0],[0.985,0.985,0],[0.015,0.985,0],[0.25,0,0],[0.5,0,0],[0.75,0,0],[1,0.25,0],[1,0.5,0],[1,0.75,0],[0.75,1,0],[0.5,1,0],[0.25,1,0],[0,0.75,0],[0,0.5,0],[0,0.25,0]];verticalLabelPosition=middle;html=1;verticalAlign=middle;aspect=fixed;align=right;pointerEvents=1;shape=mxgraph.cisco19.rect;prIcon=l2_switch;fillColor=#fff2cc;strokeColor=#d6b656;labelPosition=left;" parent="1" vertex="1">
          <mxGeometry x="480" y="440" width="50" height="50" as="geometry" />
        </mxCell>
        <mxCell id="9Bq7WmWvDdRx8j_mDBdu-7" value="otus-spine-sw02" style="sketch=0;points=[[0.015,0.015,0],[0.985,0.015,0],[0.985,0.985,0],[0.015,0.985,0],[0.25,0,0],[0.5,0,0],[0.75,0,0],[1,0.25,0],[1,0.5,0],[1,0.75,0],[0.75,1,0],[0.5,1,0],[0.25,1,0],[0,0.75,0],[0,0.5,0],[0,0.25,0]];verticalLabelPosition=middle;html=1;verticalAlign=middle;aspect=fixed;align=left;pointerEvents=1;shape=mxgraph.cisco19.rect;prIcon=l2_switch;fillColor=#dae8fc;strokeColor=#6c8ebf;labelPosition=right;" parent="1" vertex="1">
          <mxGeometry x="860" y="240" width="50" height="50" as="geometry" />
        </mxCell>
        <mxCell id="9Bq7WmWvDdRx8j_mDBdu-8" value="otus-leaf-sw02" style="sketch=0;points=[[0.015,0.015,0],[0.985,0.015,0],[0.985,0.985,0],[0.015,0.985,0],[0.25,0,0],[0.5,0,0],[0.75,0,0],[1,0.25,0],[1,0.5,0],[1,0.75,0],[0.75,1,0],[0.5,1,0],[0.25,1,0],[0,0.75,0],[0,0.5,0],[0,0.25,0]];verticalLabelPosition=middle;html=1;verticalAlign=middle;aspect=fixed;align=left;pointerEvents=1;shape=mxgraph.cisco19.rect;prIcon=l2_switch;fillColor=#fff2cc;strokeColor=#d6b656;labelPosition=right;" parent="1" vertex="1">
          <mxGeometry x="600" y="440" width="50" height="50" as="geometry" />
        </mxCell>
        <mxCell id="9Bq7WmWvDdRx8j_mDBdu-9" value="otus-leaf-sw03" style="sketch=0;points=[[0.015,0.015,0],[0.985,0.015,0],[0.985,0.985,0],[0.015,0.985,0],[0.25,0,0],[0.5,0,0],[0.75,0,0],[1,0.25,0],[1,0.5,0],[1,0.75,0],[0.75,1,0],[0.5,1,0],[0.25,1,0],[0,0.75,0],[0,0.5,0],[0,0.25,0]];verticalLabelPosition=middle;html=1;verticalAlign=middle;aspect=fixed;align=right;pointerEvents=1;shape=mxgraph.cisco19.rect;prIcon=l2_switch;fillColor=#d5e8d4;strokeColor=#82b366;labelPosition=left;" parent="1" vertex="1">
          <mxGeometry x="841.5" y="440" width="50" height="50" as="geometry" />
        </mxCell>
        <mxCell id="9Bq7WmWvDdRx8j_mDBdu-10" value="otus-leaf-sw04" style="sketch=0;points=[[0.015,0.015,0],[0.985,0.015,0],[0.985,0.985,0],[0.015,0.985,0],[0.25,0,0],[0.5,0,0],[0.75,0,0],[1,0.25,0],[1,0.5,0],[1,0.75,0],[0.75,1,0],[0.5,1,0],[0.25,1,0],[0,0.75,0],[0,0.5,0],[0,0.25,0]];verticalLabelPosition=middle;html=1;verticalAlign=middle;aspect=fixed;align=left;pointerEvents=1;shape=mxgraph.cisco19.rect;prIcon=l2_switch;fillColor=#d5e8d4;strokeColor=#82b366;labelPosition=right;" parent="1" vertex="1">
          <mxGeometry x="960" y="440" width="50" height="50" as="geometry" />
        </mxCell>
        <mxCell id="9Bq7WmWvDdRx8j_mDBdu-12" value="" style="endArrow=none;html=1;rounded=0;fillColor=#dae8fc;strokeColor=#6c8ebf;entryX=0.5;entryY=1;entryDx=0;entryDy=0;entryPerimeter=0;exitX=0.5;exitY=0;exitDx=0;exitDy=0;exitPerimeter=0;" parent="1" source="9Bq7WmWvDdRx8j_mDBdu-6" target="9Bq7WmWvDdRx8j_mDBdu-3" edge="1">
          <mxGeometry width="50" height="50" relative="1" as="geometry">
            <mxPoint x="800" y="380" as="sourcePoint" />
            <mxPoint x="850" y="330" as="targetPoint" />
          </mxGeometry>
        </mxCell>
        <mxCell id="9Bq7WmWvDdRx8j_mDBdu-13" value="" style="endArrow=none;html=1;rounded=0;fillColor=#dae8fc;strokeColor=#6c8ebf;entryX=0.5;entryY=1;entryDx=0;entryDy=0;entryPerimeter=0;exitX=0.5;exitY=0;exitDx=0;exitDy=0;exitPerimeter=0;" parent="1" source="9Bq7WmWvDdRx8j_mDBdu-8" target="9Bq7WmWvDdRx8j_mDBdu-3" edge="1">
          <mxGeometry width="50" height="50" relative="1" as="geometry">
            <mxPoint x="385" y="460" as="sourcePoint" />
            <mxPoint x="535" y="300" as="targetPoint" />
          </mxGeometry>
        </mxCell>
        <mxCell id="9Bq7WmWvDdRx8j_mDBdu-14" value="" style="endArrow=none;html=1;rounded=0;fillColor=#dae8fc;strokeColor=#6c8ebf;entryX=0.5;entryY=1;entryDx=0;entryDy=0;entryPerimeter=0;exitX=0.5;exitY=0;exitDx=0;exitDy=0;exitPerimeter=0;" parent="1" source="9Bq7WmWvDdRx8j_mDBdu-9" target="9Bq7WmWvDdRx8j_mDBdu-3" edge="1">
          <mxGeometry width="50" height="50" relative="1" as="geometry">
            <mxPoint x="535" y="460" as="sourcePoint" />
            <mxPoint x="535" y="300" as="targetPoint" />
          </mxGeometry>
        </mxCell>
        <mxCell id="9Bq7WmWvDdRx8j_mDBdu-15" value="" style="endArrow=none;html=1;rounded=0;fillColor=#dae8fc;strokeColor=#6c8ebf;entryX=0.5;entryY=1;entryDx=0;entryDy=0;entryPerimeter=0;exitX=0.5;exitY=0;exitDx=0;exitDy=0;exitPerimeter=0;" parent="1" source="9Bq7WmWvDdRx8j_mDBdu-10" target="9Bq7WmWvDdRx8j_mDBdu-3" edge="1">
          <mxGeometry width="50" height="50" relative="1" as="geometry">
            <mxPoint x="685" y="460" as="sourcePoint" />
            <mxPoint x="535" y="300" as="targetPoint" />
          </mxGeometry>
        </mxCell>
        <mxCell id="9Bq7WmWvDdRx8j_mDBdu-16" value="" style="endArrow=none;html=1;rounded=0;fillColor=#dae8fc;strokeColor=#6c8ebf;entryX=0.5;entryY=1;entryDx=0;entryDy=0;entryPerimeter=0;exitX=0.5;exitY=0;exitDx=0;exitDy=0;exitPerimeter=0;" parent="1" source="9Bq7WmWvDdRx8j_mDBdu-10" target="9Bq7WmWvDdRx8j_mDBdu-7" edge="1">
          <mxGeometry width="50" height="50" relative="1" as="geometry">
            <mxPoint x="835" y="460" as="sourcePoint" />
            <mxPoint x="615" y="300" as="targetPoint" />
          </mxGeometry>
        </mxCell>
        <mxCell id="9Bq7WmWvDdRx8j_mDBdu-17" value="" style="endArrow=none;html=1;rounded=0;fillColor=#dae8fc;strokeColor=#6c8ebf;entryX=0.5;entryY=1;entryDx=0;entryDy=0;entryPerimeter=0;exitX=0.5;exitY=0;exitDx=0;exitDy=0;exitPerimeter=0;" parent="1" source="9Bq7WmWvDdRx8j_mDBdu-6" target="9Bq7WmWvDdRx8j_mDBdu-7" edge="1">
          <mxGeometry width="50" height="50" relative="1" as="geometry">
            <mxPoint x="845" y="470" as="sourcePoint" />
            <mxPoint x="755" y="300" as="targetPoint" />
          </mxGeometry>
        </mxCell>
        <mxCell id="9Bq7WmWvDdRx8j_mDBdu-18" value="" style="endArrow=none;html=1;rounded=0;fillColor=#dae8fc;strokeColor=#6c8ebf;entryX=0.5;entryY=1;entryDx=0;entryDy=0;entryPerimeter=0;exitX=0.5;exitY=0;exitDx=0;exitDy=0;exitPerimeter=0;" parent="1" source="9Bq7WmWvDdRx8j_mDBdu-8" target="9Bq7WmWvDdRx8j_mDBdu-7" edge="1">
          <mxGeometry width="50" height="50" relative="1" as="geometry">
            <mxPoint x="385" y="460" as="sourcePoint" />
            <mxPoint x="755" y="300" as="targetPoint" />
          </mxGeometry>
        </mxCell>
        <mxCell id="9Bq7WmWvDdRx8j_mDBdu-19" value="" style="endArrow=none;html=1;rounded=0;fillColor=#dae8fc;strokeColor=#6c8ebf;entryX=0.5;entryY=1;entryDx=0;entryDy=0;entryPerimeter=0;exitX=0.5;exitY=0;exitDx=0;exitDy=0;exitPerimeter=0;" parent="1" source="9Bq7WmWvDdRx8j_mDBdu-9" target="9Bq7WmWvDdRx8j_mDBdu-7" edge="1">
          <mxGeometry width="50" height="50" relative="1" as="geometry">
            <mxPoint x="535" y="460" as="sourcePoint" />
            <mxPoint x="755" y="300" as="targetPoint" />
          </mxGeometry>
        </mxCell>
        <mxCell id="9Bq7WmWvDdRx8j_mDBdu-28" value="" style="endArrow=none;html=1;rounded=0;fillColor=#d5e8d4;strokeColor=#82B366;entryX=0.5;entryY=1;entryDx=0;entryDy=0;entryPerimeter=0;exitX=0.5;exitY=0;exitDx=0;exitDy=0;exitPerimeter=0;" parent="1" source="9Bq7WmWvDdRx8j_mDBdu-23" target="9Bq7WmWvDdRx8j_mDBdu-9" edge="1">
          <mxGeometry width="50" height="50" relative="1" as="geometry">
            <mxPoint x="845" y="460" as="sourcePoint" />
            <mxPoint x="775" y="300" as="targetPoint" />
          </mxGeometry>
        </mxCell>
        <mxCell id="9Bq7WmWvDdRx8j_mDBdu-29" value="" style="endArrow=none;html=1;rounded=0;fillColor=#d5e8d4;strokeColor=#82B366;entryX=0.5;entryY=1;entryDx=0;entryDy=0;entryPerimeter=0;exitX=0.5;exitY=0;exitDx=0;exitDy=0;exitPerimeter=0;" parent="1" source="9Bq7WmWvDdRx8j_mDBdu-23" target="9Bq7WmWvDdRx8j_mDBdu-10" edge="1">
          <mxGeometry width="50" height="50" relative="1" as="geometry">
            <mxPoint x="915" y="610" as="sourcePoint" />
            <mxPoint x="845" y="510" as="targetPoint" />
          </mxGeometry>
        </mxCell>
        <mxCell id="9Bq7WmWvDdRx8j_mDBdu-30" value="" style="endArrow=none;html=1;rounded=0;fillColor=#d5e8d4;strokeColor=#82b366;entryX=0.5;entryY=1;entryDx=0;entryDy=0;entryPerimeter=0;exitX=0.5;exitY=0;exitDx=0;exitDy=0;exitPerimeter=0;dashed=1;" parent="1" source="9Bq7WmWvDdRx8j_mDBdu-24" target="9Bq7WmWvDdRx8j_mDBdu-10" edge="1">
          <mxGeometry width="50" height="50" relative="1" as="geometry">
            <mxPoint x="1060" y="590" as="sourcePoint" />
            <mxPoint x="1140" y="490" as="targetPoint" />
          </mxGeometry>
        </mxCell>
        <mxCell id="9Bq7WmWvDdRx8j_mDBdu-31" value="" style="endArrow=none;html=1;rounded=0;fillColor=#d5e8d4;strokeColor=#82b366;entryX=0.5;entryY=1;entryDx=0;entryDy=0;entryPerimeter=0;exitX=0.5;exitY=0;exitDx=0;exitDy=0;exitPerimeter=0;dashed=1;" parent="1" source="9Bq7WmWvDdRx8j_mDBdu-24" target="9Bq7WmWvDdRx8j_mDBdu-9" edge="1">
          <mxGeometry width="50" height="50" relative="1" as="geometry">
            <mxPoint x="1001" y="610" as="sourcePoint" />
            <mxPoint x="995" y="510" as="targetPoint" />
          </mxGeometry>
        </mxCell>
        <mxCell id="9Bq7WmWvDdRx8j_mDBdu-32" value="" style="endArrow=none;html=1;rounded=0;fillColor=#d5e8d4;strokeColor=#82b366;entryX=0.5;entryY=1;entryDx=0;entryDy=0;entryPerimeter=0;exitX=0.5;exitY=0;exitDx=0;exitDy=0;exitPerimeter=0;dashed=1;" parent="1" source="9Bq7WmWvDdRx8j_mDBdu-25" target="9Bq7WmWvDdRx8j_mDBdu-10" edge="1">
          <mxGeometry width="50" height="50" relative="1" as="geometry">
            <mxPoint x="959" y="610" as="sourcePoint" />
            <mxPoint x="995" y="510" as="targetPoint" />
          </mxGeometry>
        </mxCell>
        <mxCell id="9Bq7WmWvDdRx8j_mDBdu-33" value="" style="endArrow=none;html=1;rounded=0;fillColor=#d5e8d4;strokeColor=#82b366;exitX=0.5;exitY=0;exitDx=0;exitDy=0;exitPerimeter=0;dashed=1;entryX=0.5;entryY=1;entryDx=0;entryDy=0;entryPerimeter=0;" parent="1" source="9Bq7WmWvDdRx8j_mDBdu-25" target="9Bq7WmWvDdRx8j_mDBdu-9" edge="1">
          <mxGeometry width="50" height="50" relative="1" as="geometry">
            <mxPoint x="1001" y="610" as="sourcePoint" />
            <mxPoint x="830" y="500" as="targetPoint" />
          </mxGeometry>
        </mxCell>
        <mxCell id="9Bq7WmWvDdRx8j_mDBdu-49" value="" style="group" parent="1" vertex="1" connectable="0">
          <mxGeometry x="863" y="600" width="145.75" height="70" as="geometry" />
        </mxCell>
        <mxCell id="9Bq7WmWvDdRx8j_mDBdu-23" value="" style="sketch=0;points=[[0.015,0.015,0],[0.985,0.015,0],[0.985,0.985,0],[0.015,0.985,0],[0.25,0,0],[0.5,0,0],[0.75,0,0],[1,0.25,0],[1,0.5,0],[1,0.75,0],[0.75,1,0],[0.5,1,0],[0.25,1,0],[0,0.75,0],[0,0.5,0],[0,0.25,0]];verticalLabelPosition=bottom;html=1;verticalAlign=top;aspect=fixed;align=center;pointerEvents=1;shape=mxgraph.cisco19.server;fillColor=#82B366;strokeColor=none;" parent="9Bq7WmWvDdRx8j_mDBdu-49" vertex="1">
          <mxGeometry width="38.5" height="70" as="geometry" />
        </mxCell>
        <mxCell id="9Bq7WmWvDdRx8j_mDBdu-24" value="Cluster B" style="sketch=0;points=[[0.015,0.015,0],[0.985,0.015,0],[0.985,0.985,0],[0.015,0.985,0],[0.25,0,0],[0.5,0,0],[0.75,0,0],[1,0.25,0],[1,0.5,0],[1,0.75,0],[0.75,1,0],[0.5,1,0],[0.25,1,0],[0,0.75,0],[0,0.5,0],[0,0.25,0]];verticalLabelPosition=bottom;html=1;verticalAlign=top;aspect=fixed;align=center;pointerEvents=1;shape=mxgraph.cisco19.server;fillColor=#82B366;strokeColor=none;" parent="9Bq7WmWvDdRx8j_mDBdu-49" vertex="1">
          <mxGeometry x="44.25" width="38.5" height="70" as="geometry" />
        </mxCell>
        <mxCell id="9Bq7WmWvDdRx8j_mDBdu-25" value="" style="sketch=0;points=[[0.015,0.015,0],[0.985,0.015,0],[0.985,0.985,0],[0.015,0.985,0],[0.25,0,0],[0.5,0,0],[0.75,0,0],[1,0.25,0],[1,0.5,0],[1,0.75,0],[0.75,1,0],[0.5,1,0],[0.25,1,0],[0,0.75,0],[0,0.5,0],[0,0.25,0]];verticalLabelPosition=bottom;html=1;verticalAlign=top;aspect=fixed;align=center;pointerEvents=1;shape=mxgraph.cisco19.server;fillColor=#82B366;strokeColor=none;" parent="9Bq7WmWvDdRx8j_mDBdu-49" vertex="1">
          <mxGeometry x="85.75" width="38.5" height="70" as="geometry" />
        </mxCell>
        <mxCell id="9Bq7WmWvDdRx8j_mDBdu-75" value="1" style="text;html=1;strokeColor=none;fillColor=none;align=center;verticalAlign=middle;whiteSpace=wrap;rounded=0;fontColor=#82B366;fontStyle=1" parent="9Bq7WmWvDdRx8j_mDBdu-49" vertex="1">
          <mxGeometry y="20" width="60" height="30" as="geometry" />
        </mxCell>
        <mxCell id="9Bq7WmWvDdRx8j_mDBdu-74" value="2" style="text;html=1;strokeColor=none;fillColor=none;align=center;verticalAlign=middle;whiteSpace=wrap;rounded=0;fontColor=#82B366;fontStyle=1" parent="9Bq7WmWvDdRx8j_mDBdu-49" vertex="1">
          <mxGeometry x="44.25" y="20" width="60" height="30" as="geometry" />
        </mxCell>
        <mxCell id="9Bq7WmWvDdRx8j_mDBdu-76" value="3" style="text;html=1;strokeColor=none;fillColor=none;align=center;verticalAlign=middle;whiteSpace=wrap;rounded=0;fontColor=#82B366;fontStyle=1" parent="9Bq7WmWvDdRx8j_mDBdu-49" vertex="1">
          <mxGeometry x="85.75" y="20" width="60" height="30" as="geometry" />
        </mxCell>
        <mxCell id="9Bq7WmWvDdRx8j_mDBdu-50" value="" style="endArrow=none;html=1;rounded=0;fillColor=#dae8fc;strokeColor=#D79B00;entryX=0.5;entryY=1;entryDx=0;entryDy=0;entryPerimeter=0;exitX=0.5;exitY=0;exitDx=0;exitDy=0;exitPerimeter=0;" parent="1" source="9Bq7WmWvDdRx8j_mDBdu-57" target="9Bq7WmWvDdRx8j_mDBdu-6" edge="1">
          <mxGeometry width="50" height="50" relative="1" as="geometry">
            <mxPoint x="540" y="460" as="sourcePoint" />
            <mxPoint x="530" y="500" as="targetPoint" />
          </mxGeometry>
        </mxCell>
        <mxCell id="9Bq7WmWvDdRx8j_mDBdu-51" value="" style="endArrow=none;html=1;rounded=0;fillColor=#ffe6cc;strokeColor=#D79B00;entryX=0.5;entryY=1;entryDx=0;entryDy=0;entryPerimeter=0;exitX=0.5;exitY=0;exitDx=0;exitDy=0;exitPerimeter=0;" parent="1" source="9Bq7WmWvDdRx8j_mDBdu-57" target="9Bq7WmWvDdRx8j_mDBdu-8" edge="1">
          <mxGeometry width="50" height="50" relative="1" as="geometry">
            <mxPoint x="610" y="610" as="sourcePoint" />
            <mxPoint x="680" y="500" as="targetPoint" />
          </mxGeometry>
        </mxCell>
        <mxCell id="9Bq7WmWvDdRx8j_mDBdu-52" value="" style="endArrow=none;html=1;rounded=0;fillColor=#dae8fc;strokeColor=#D79B00;entryX=0.5;entryY=1;entryDx=0;entryDy=0;entryPerimeter=0;exitX=0.5;exitY=0;exitDx=0;exitDy=0;exitPerimeter=0;dashed=1;" parent="1" source="9Bq7WmWvDdRx8j_mDBdu-58" target="9Bq7WmWvDdRx8j_mDBdu-8" edge="1">
          <mxGeometry width="50" height="50" relative="1" as="geometry">
            <mxPoint x="755" y="590" as="sourcePoint" />
            <mxPoint x="680" y="500" as="targetPoint" />
          </mxGeometry>
        </mxCell>
        <mxCell id="9Bq7WmWvDdRx8j_mDBdu-53" value="" style="endArrow=none;html=1;rounded=0;fillColor=#dae8fc;strokeColor=#D79B00;entryX=0.5;entryY=1;entryDx=0;entryDy=0;entryPerimeter=0;exitX=0.5;exitY=0;exitDx=0;exitDy=0;exitPerimeter=0;dashed=1;" parent="1" source="9Bq7WmWvDdRx8j_mDBdu-58" target="9Bq7WmWvDdRx8j_mDBdu-6" edge="1">
          <mxGeometry width="50" height="50" relative="1" as="geometry">
            <mxPoint x="696" y="610" as="sourcePoint" />
            <mxPoint x="530" y="500" as="targetPoint" />
          </mxGeometry>
        </mxCell>
        <mxCell id="9Bq7WmWvDdRx8j_mDBdu-54" value="" style="endArrow=none;html=1;rounded=0;fillColor=#dae8fc;strokeColor=#D79B00;entryX=0.5;entryY=1;entryDx=0;entryDy=0;entryPerimeter=0;exitX=0.5;exitY=0;exitDx=0;exitDy=0;exitPerimeter=0;dashed=1;" parent="1" source="9Bq7WmWvDdRx8j_mDBdu-59" target="9Bq7WmWvDdRx8j_mDBdu-8" edge="1">
          <mxGeometry width="50" height="50" relative="1" as="geometry">
            <mxPoint x="654" y="610" as="sourcePoint" />
            <mxPoint x="680" y="500" as="targetPoint" />
          </mxGeometry>
        </mxCell>
        <mxCell id="9Bq7WmWvDdRx8j_mDBdu-55" value="" style="endArrow=none;html=1;rounded=0;fillColor=#dae8fc;strokeColor=#D79B00;exitX=0.5;exitY=0;exitDx=0;exitDy=0;exitPerimeter=0;dashed=1;entryX=0.5;entryY=1;entryDx=0;entryDy=0;entryPerimeter=0;" parent="1" source="9Bq7WmWvDdRx8j_mDBdu-59" target="9Bq7WmWvDdRx8j_mDBdu-6" edge="1">
          <mxGeometry width="50" height="50" relative="1" as="geometry">
            <mxPoint x="696" y="610" as="sourcePoint" />
            <mxPoint x="530" y="500" as="targetPoint" />
          </mxGeometry>
        </mxCell>
        <mxCell id="9Bq7WmWvDdRx8j_mDBdu-56" value="" style="group;strokeColor=none;" parent="1" vertex="1" connectable="0">
          <mxGeometry x="500" y="600" width="145.75" height="70" as="geometry" />
        </mxCell>
        <mxCell id="9Bq7WmWvDdRx8j_mDBdu-57" value="" style="sketch=0;points=[[0.015,0.015,0],[0.985,0.015,0],[0.985,0.985,0],[0.015,0.985,0],[0.25,0,0],[0.5,0,0],[0.75,0,0],[1,0.25,0],[1,0.5,0],[1,0.75,0],[0.75,1,0],[0.5,1,0],[0.25,1,0],[0,0.75,0],[0,0.5,0],[0,0.25,0]];verticalLabelPosition=bottom;html=1;verticalAlign=top;aspect=fixed;align=center;pointerEvents=1;shape=mxgraph.cisco19.server;fillColor=#D79B00;strokeColor=#D79B00;" parent="9Bq7WmWvDdRx8j_mDBdu-56" vertex="1">
          <mxGeometry width="38.5" height="70" as="geometry" />
        </mxCell>
        <mxCell id="9Bq7WmWvDdRx8j_mDBdu-58" value="Cluster A" style="sketch=0;points=[[0.015,0.015,0],[0.985,0.015,0],[0.985,0.985,0],[0.015,0.985,0],[0.25,0,0],[0.5,0,0],[0.75,0,0],[1,0.25,0],[1,0.5,0],[1,0.75,0],[0.75,1,0],[0.5,1,0],[0.25,1,0],[0,0.75,0],[0,0.5,0],[0,0.25,0]];verticalLabelPosition=bottom;html=1;verticalAlign=top;aspect=fixed;align=center;pointerEvents=1;shape=mxgraph.cisco19.server;fillColor=#D79B00;strokeColor=#D79B00;" parent="9Bq7WmWvDdRx8j_mDBdu-56" vertex="1">
          <mxGeometry x="44.25" width="38.5" height="70" as="geometry" />
        </mxCell>
        <mxCell id="9Bq7WmWvDdRx8j_mDBdu-59" value="" style="sketch=0;points=[[0.015,0.015,0],[0.985,0.015,0],[0.985,0.985,0],[0.015,0.985,0],[0.25,0,0],[0.5,0,0],[0.75,0,0],[1,0.25,0],[1,0.5,0],[1,0.75,0],[0.75,1,0],[0.5,1,0],[0.25,1,0],[0,0.75,0],[0,0.5,0],[0,0.25,0]];verticalLabelPosition=bottom;html=1;verticalAlign=top;aspect=fixed;align=center;pointerEvents=1;shape=mxgraph.cisco19.server;fillColor=#D79B00;strokeColor=#D79B00;" parent="9Bq7WmWvDdRx8j_mDBdu-56" vertex="1">
          <mxGeometry x="85.75" width="38.5" height="70" as="geometry" />
        </mxCell>
        <mxCell id="9Bq7WmWvDdRx8j_mDBdu-71" value="1" style="text;html=1;strokeColor=none;fillColor=none;align=center;verticalAlign=middle;whiteSpace=wrap;rounded=0;fontColor=#D79B00;fontStyle=1" parent="9Bq7WmWvDdRx8j_mDBdu-56" vertex="1">
          <mxGeometry y="20" width="60" height="30" as="geometry" />
        </mxCell>
        <mxCell id="9Bq7WmWvDdRx8j_mDBdu-72" value="2" style="text;html=1;strokeColor=none;fillColor=none;align=center;verticalAlign=middle;whiteSpace=wrap;rounded=0;fontColor=#D79B00;fontStyle=1" parent="9Bq7WmWvDdRx8j_mDBdu-56" vertex="1">
          <mxGeometry x="44" y="20" width="60" height="30" as="geometry" />
        </mxCell>
        <mxCell id="9Bq7WmWvDdRx8j_mDBdu-73" value="3" style="text;html=1;strokeColor=none;fillColor=none;align=center;verticalAlign=middle;whiteSpace=wrap;rounded=0;fontColor=#D79B00;fontStyle=1" parent="9Bq7WmWvDdRx8j_mDBdu-56" vertex="1">
          <mxGeometry x="85.75" y="20" width="60" height="30" as="geometry" />
        </mxCell>
        <mxCell id="9Bq7WmWvDdRx8j_mDBdu-70" value="Площадка OTUS&amp;nbsp;XVII" style="text;html=1;strokeColor=none;fillColor=none;align=center;verticalAlign=middle;whiteSpace=wrap;rounded=0;fontSize=18;fontStyle=1;fontFamily=Verdana;" parent="1" vertex="1">
          <mxGeometry x="618.87" y="170" width="314" height="30" as="geometry" />
        </mxCell>
        <mxCell id="1pzSjyT5Th-Nko6e0nX1-1" value="ASN 65000" style="text;html=1;strokeColor=none;fillColor=none;align=center;verticalAlign=middle;whiteSpace=wrap;rounded=0;" parent="1" vertex="1">
          <mxGeometry x="585" y="210" width="100" height="30" as="geometry" />
        </mxCell>
        <mxCell id="1pzSjyT5Th-Nko6e0nX1-2" value="ASN 65000" style="text;html=1;strokeColor=none;fillColor=none;align=center;verticalAlign=middle;whiteSpace=wrap;rounded=0;" parent="1" vertex="1">
          <mxGeometry x="835" y="210" width="100" height="30" as="geometry" />
        </mxCell>
        <mxCell id="1pzSjyT5Th-Nko6e0nX1-3" value="ASN 65001" style="text;html=1;strokeColor=none;fillColor=none;align=center;verticalAlign=middle;whiteSpace=wrap;rounded=0;" parent="1" vertex="1">
          <mxGeometry x="390" y="470" width="100" height="30" as="geometry" />
        </mxCell>
        <mxCell id="1pzSjyT5Th-Nko6e0nX1-4" value="ASN 65002" style="text;html=1;strokeColor=none;fillColor=none;align=center;verticalAlign=middle;whiteSpace=wrap;rounded=0;" parent="1" vertex="1">
          <mxGeometry x="645.75" y="470" width="100" height="30" as="geometry" />
        </mxCell>
        <mxCell id="1pzSjyT5Th-Nko6e0nX1-5" value="ASN 65003" style="text;html=1;strokeColor=none;fillColor=none;align=center;verticalAlign=middle;whiteSpace=wrap;rounded=0;" parent="1" vertex="1">
          <mxGeometry x="720" y="480" width="100" height="30" as="geometry" />
        </mxCell>
        <mxCell id="1pzSjyT5Th-Nko6e0nX1-6" value="ASN 65004" style="text;html=1;strokeColor=none;fillColor=none;align=center;verticalAlign=middle;whiteSpace=wrap;rounded=0;" parent="1" vertex="1">
          <mxGeometry x="1000" y="480" width="100" height="30" as="geometry" />
        </mxCell>
      </root>
    </mxGraphModel>
  </diagram>
  <diagram id="J7ZgITSCI6pPq5xOaHzq" name="underlay">
    <mxGraphModel dx="1621" dy="519" grid="1" gridSize="10" guides="1" tooltips="1" connect="1" arrows="1" fold="1" page="1" pageScale="1" pageWidth="827" pageHeight="1169" math="0" shadow="0">
      <root>
        <mxCell id="0" />
        <mxCell id="1" parent="0" />
        <mxCell id="8L-WaVjotfStqpqB3ohm-92" value="&lt;font style=&quot;font-size: 25px;&quot;&gt;eBGP&lt;/font&gt;" style="ellipse;shape=cloud;whiteSpace=wrap;html=1;fillColor=#bac8d3;strokeColor=#23445d;opacity=40;textOpacity=40;" parent="1" vertex="1">
          <mxGeometry x="-160" y="130" width="1250" height="460" as="geometry" />
        </mxCell>
        <mxCell id="8L-WaVjotfStqpqB3ohm-52" value="" style="rounded=1;whiteSpace=wrap;html=1;fillColor=#f5f5f5;strokeColor=#666666;fontColor=#333333;" parent="1" vertex="1">
          <mxGeometry x="450" y="410" width="220" height="90" as="geometry" />
        </mxCell>
        <mxCell id="8L-WaVjotfStqpqB3ohm-53" value="" style="rounded=1;whiteSpace=wrap;html=1;fillColor=#f5f5f5;strokeColor=#666666;fontColor=#333333;" parent="1" vertex="1">
          <mxGeometry x="720" y="410" width="220" height="90" as="geometry" />
        </mxCell>
        <mxCell id="8L-WaVjotfStqpqB3ohm-51" value="" style="rounded=1;whiteSpace=wrap;html=1;fillColor=#f5f5f5;strokeColor=#666666;fontColor=#333333;" parent="1" vertex="1">
          <mxGeometry x="200" y="410" width="220" height="90" as="geometry" />
        </mxCell>
        <mxCell id="8L-WaVjotfStqpqB3ohm-50" value="" style="rounded=1;whiteSpace=wrap;html=1;fillColor=#f5f5f5;strokeColor=#666666;fontColor=#333333;" parent="1" vertex="1">
          <mxGeometry x="-70" y="410" width="220" height="90" as="geometry" />
        </mxCell>
        <mxCell id="8L-WaVjotfStqpqB3ohm-49" value="" style="rounded=1;whiteSpace=wrap;html=1;fillColor=#e1d5e7;strokeColor=#9673a6;" parent="1" vertex="1">
          <mxGeometry x="210" y="90" width="510" height="90" as="geometry" />
        </mxCell>
        <mxCell id="8L-WaVjotfStqpqB3ohm-1" value="otus-spine-sw01" style="sketch=0;points=[[0.015,0.015,0],[0.985,0.015,0],[0.985,0.985,0],[0.015,0.985,0],[0.25,0,0],[0.5,0,0],[0.75,0,0],[1,0.25,0],[1,0.5,0],[1,0.75,0],[0.75,1,0],[0.5,1,0],[0.25,1,0],[0,0.75,0],[0,0.5,0],[0,0.25,0]];verticalLabelPosition=middle;html=1;verticalAlign=middle;aspect=fixed;align=right;pointerEvents=1;shape=mxgraph.cisco19.rect;prIcon=l2_switch;fillColor=#dae8fc;strokeColor=#6c8ebf;labelPosition=left;" parent="1" vertex="1">
          <mxGeometry x="310" y="120" width="50" height="50" as="geometry" />
        </mxCell>
        <mxCell id="8L-WaVjotfStqpqB3ohm-2" value="otus-leaf-sw01" style="sketch=0;points=[[0.015,0.015,0],[0.985,0.015,0],[0.985,0.985,0],[0.015,0.985,0],[0.25,0,0],[0.5,0,0],[0.75,0,0],[1,0.25,0],[1,0.5,0],[1,0.75,0],[0.75,1,0],[0.5,1,0],[0.25,1,0],[0,0.75,0],[0,0.5,0],[0,0.25,0]];verticalLabelPosition=middle;html=1;verticalAlign=middle;aspect=fixed;align=right;pointerEvents=1;shape=mxgraph.cisco19.rect;prIcon=l2_switch;fillColor=#fff2cc;strokeColor=#d6b656;labelPosition=left;" parent="1" vertex="1">
          <mxGeometry x="70" y="430" width="50" height="50" as="geometry" />
        </mxCell>
        <mxCell id="8L-WaVjotfStqpqB3ohm-3" value="otus-spine-sw02" style="sketch=0;points=[[0.015,0.015,0],[0.985,0.015,0],[0.985,0.985,0],[0.015,0.985,0],[0.25,0,0],[0.5,0,0],[0.75,0,0],[1,0.25,0],[1,0.5,0],[1,0.75,0],[0.75,1,0],[0.5,1,0],[0.25,1,0],[0,0.75,0],[0,0.5,0],[0,0.25,0]];verticalLabelPosition=middle;html=1;verticalAlign=middle;aspect=fixed;align=left;pointerEvents=1;shape=mxgraph.cisco19.rect;prIcon=l2_switch;fillColor=#dae8fc;strokeColor=#6c8ebf;labelPosition=right;" parent="1" vertex="1">
          <mxGeometry x="560" y="120" width="50" height="50" as="geometry" />
        </mxCell>
        <mxCell id="8L-WaVjotfStqpqB3ohm-4" value="otus-leaf-sw02" style="sketch=0;points=[[0.015,0.015,0],[0.985,0.015,0],[0.985,0.985,0],[0.015,0.985,0],[0.25,0,0],[0.5,0,0],[0.75,0,0],[1,0.25,0],[1,0.5,0],[1,0.75,0],[0.75,1,0],[0.5,1,0],[0.25,1,0],[0,0.75,0],[0,0.5,0],[0,0.25,0]];verticalLabelPosition=middle;html=1;verticalAlign=middle;aspect=fixed;align=right;pointerEvents=1;shape=mxgraph.cisco19.rect;prIcon=l2_switch;fillColor=#fff2cc;strokeColor=#d6b656;labelPosition=left;" parent="1" vertex="1">
          <mxGeometry x="340" y="430" width="50" height="50" as="geometry" />
        </mxCell>
        <mxCell id="8L-WaVjotfStqpqB3ohm-5" value="otus-leaf-sw03" style="sketch=0;points=[[0.015,0.015,0],[0.985,0.015,0],[0.985,0.985,0],[0.015,0.985,0],[0.25,0,0],[0.5,0,0],[0.75,0,0],[1,0.25,0],[1,0.5,0],[1,0.75,0],[0.75,1,0],[0.5,1,0],[0.25,1,0],[0,0.75,0],[0,0.5,0],[0,0.25,0]];verticalLabelPosition=middle;html=1;verticalAlign=middle;aspect=fixed;align=right;pointerEvents=1;shape=mxgraph.cisco19.rect;prIcon=l2_switch;fillColor=#d5e8d4;strokeColor=#82b366;labelPosition=left;" parent="1" vertex="1">
          <mxGeometry x="590" y="430" width="50" height="50" as="geometry" />
        </mxCell>
        <mxCell id="8L-WaVjotfStqpqB3ohm-6" value="otus-leaf-sw04" style="sketch=0;points=[[0.015,0.015,0],[0.985,0.015,0],[0.985,0.985,0],[0.015,0.985,0],[0.25,0,0],[0.5,0,0],[0.75,0,0],[1,0.25,0],[1,0.5,0],[1,0.75,0],[0.75,1,0],[0.5,1,0],[0.25,1,0],[0,0.75,0],[0,0.5,0],[0,0.25,0]];verticalLabelPosition=middle;html=1;verticalAlign=middle;aspect=fixed;align=right;pointerEvents=1;shape=mxgraph.cisco19.rect;prIcon=l2_switch;fillColor=#d5e8d4;strokeColor=#82b366;labelPosition=left;" parent="1" vertex="1">
          <mxGeometry x="860" y="430" width="50" height="50" as="geometry" />
        </mxCell>
        <mxCell id="8L-WaVjotfStqpqB3ohm-7" value="" style="endArrow=none;html=1;rounded=0;fillColor=#dae8fc;strokeColor=#6c8ebf;entryX=0.5;entryY=1;entryDx=0;entryDy=0;entryPerimeter=0;exitX=0.625;exitY=0.2;exitDx=0;exitDy=0;exitPerimeter=0;" parent="1" source="8L-WaVjotfStqpqB3ohm-56" target="8L-WaVjotfStqpqB3ohm-1" edge="1">
          <mxGeometry width="50" height="50" relative="1" as="geometry">
            <mxPoint x="500" y="260" as="sourcePoint" />
            <mxPoint x="550" y="210" as="targetPoint" />
          </mxGeometry>
        </mxCell>
        <mxCell id="8L-WaVjotfStqpqB3ohm-8" value="" style="endArrow=none;html=1;rounded=0;fillColor=#dae8fc;strokeColor=#6c8ebf;entryX=0.5;entryY=1;entryDx=0;entryDy=0;entryPerimeter=0;exitX=0.625;exitY=0.2;exitDx=0;exitDy=0;exitPerimeter=0;" parent="1" source="8L-WaVjotfStqpqB3ohm-59" target="8L-WaVjotfStqpqB3ohm-1" edge="1">
          <mxGeometry width="50" height="50" relative="1" as="geometry">
            <mxPoint x="85" y="340" as="sourcePoint" />
            <mxPoint x="235" y="180" as="targetPoint" />
          </mxGeometry>
        </mxCell>
        <mxCell id="8L-WaVjotfStqpqB3ohm-9" value="" style="endArrow=none;html=1;rounded=0;fillColor=#dae8fc;strokeColor=#6c8ebf;entryX=0.5;entryY=1;entryDx=0;entryDy=0;entryPerimeter=0;exitX=0.25;exitY=0.25;exitDx=0;exitDy=0;exitPerimeter=0;" parent="1" source="8L-WaVjotfStqpqB3ohm-61" target="8L-WaVjotfStqpqB3ohm-1" edge="1">
          <mxGeometry width="50" height="50" relative="1" as="geometry">
            <mxPoint x="235" y="340" as="sourcePoint" />
            <mxPoint x="235" y="180" as="targetPoint" />
          </mxGeometry>
        </mxCell>
        <mxCell id="8L-WaVjotfStqpqB3ohm-10" value="" style="endArrow=none;html=1;rounded=0;fillColor=#dae8fc;strokeColor=#6c8ebf;entryX=0.5;entryY=1;entryDx=0;entryDy=0;entryPerimeter=0;exitX=0.25;exitY=0.25;exitDx=0;exitDy=0;exitPerimeter=0;" parent="1" source="8L-WaVjotfStqpqB3ohm-63" target="8L-WaVjotfStqpqB3ohm-1" edge="1">
          <mxGeometry width="50" height="50" relative="1" as="geometry">
            <mxPoint x="385" y="340" as="sourcePoint" />
            <mxPoint x="235" y="180" as="targetPoint" />
          </mxGeometry>
        </mxCell>
        <mxCell id="8L-WaVjotfStqpqB3ohm-11" value="" style="endArrow=none;html=1;rounded=0;fillColor=#dae8fc;strokeColor=#6c8ebf;entryX=0.5;entryY=1;entryDx=0;entryDy=0;entryPerimeter=0;exitX=0.25;exitY=0.25;exitDx=0;exitDy=0;exitPerimeter=0;" parent="1" source="8L-WaVjotfStqpqB3ohm-71" target="8L-WaVjotfStqpqB3ohm-3" edge="1">
          <mxGeometry width="50" height="50" relative="1" as="geometry">
            <mxPoint x="535" y="340" as="sourcePoint" />
            <mxPoint x="315" y="180" as="targetPoint" />
          </mxGeometry>
        </mxCell>
        <mxCell id="8L-WaVjotfStqpqB3ohm-12" value="" style="endArrow=none;html=1;rounded=0;fillColor=#dae8fc;strokeColor=#6c8ebf;entryX=0.5;entryY=1;entryDx=0;entryDy=0;entryPerimeter=0;exitX=0.625;exitY=0.2;exitDx=0;exitDy=0;exitPerimeter=0;" parent="1" source="8L-WaVjotfStqpqB3ohm-57" target="8L-WaVjotfStqpqB3ohm-3" edge="1">
          <mxGeometry width="50" height="50" relative="1" as="geometry">
            <mxPoint x="545" y="350" as="sourcePoint" />
            <mxPoint x="455" y="180" as="targetPoint" />
          </mxGeometry>
        </mxCell>
        <mxCell id="8L-WaVjotfStqpqB3ohm-13" value="" style="endArrow=none;html=1;rounded=0;fillColor=#dae8fc;strokeColor=#6c8ebf;entryX=0.5;entryY=1;entryDx=0;entryDy=0;entryPerimeter=0;exitX=0.625;exitY=0.2;exitDx=0;exitDy=0;exitPerimeter=0;" parent="1" source="8L-WaVjotfStqpqB3ohm-60" target="8L-WaVjotfStqpqB3ohm-3" edge="1">
          <mxGeometry width="50" height="50" relative="1" as="geometry">
            <mxPoint x="425" y="260" as="sourcePoint" />
            <mxPoint x="455" y="180" as="targetPoint" />
          </mxGeometry>
        </mxCell>
        <mxCell id="8L-WaVjotfStqpqB3ohm-14" value="" style="endArrow=none;html=1;rounded=0;fillColor=#dae8fc;strokeColor=#6c8ebf;entryX=0.5;entryY=1;entryDx=0;entryDy=0;entryPerimeter=0;exitX=0.625;exitY=0.2;exitDx=0;exitDy=0;exitPerimeter=0;" parent="1" source="8L-WaVjotfStqpqB3ohm-62" target="8L-WaVjotfStqpqB3ohm-3" edge="1">
          <mxGeometry width="50" height="50" relative="1" as="geometry">
            <mxPoint x="235" y="340" as="sourcePoint" />
            <mxPoint x="455" y="180" as="targetPoint" />
          </mxGeometry>
        </mxCell>
        <mxCell id="8L-WaVjotfStqpqB3ohm-41" value="Площадка OTUS&amp;nbsp;XVII" style="text;html=1;strokeColor=none;fillColor=none;align=center;verticalAlign=middle;whiteSpace=wrap;rounded=0;fontSize=18;fontStyle=1;fontFamily=Verdana;" parent="1" vertex="1">
          <mxGeometry x="318.87" y="50" width="314" height="30" as="geometry" />
        </mxCell>
        <mxCell id="8L-WaVjotfStqpqB3ohm-42" value="ASN 65000" style="text;html=1;strokeColor=none;fillColor=none;align=center;verticalAlign=middle;whiteSpace=wrap;rounded=0;" parent="1" vertex="1">
          <mxGeometry x="410" y="120" width="100" height="30" as="geometry" />
        </mxCell>
        <mxCell id="8L-WaVjotfStqpqB3ohm-44" value="ASN 65001" style="text;html=1;align=center;verticalAlign=middle;whiteSpace=wrap;rounded=0;" parent="1" vertex="1">
          <mxGeometry x="-80" y="410" width="100" height="30" as="geometry" />
        </mxCell>
        <mxCell id="8L-WaVjotfStqpqB3ohm-45" value="ASN 65002" style="text;html=1;strokeColor=none;fillColor=none;align=center;verticalAlign=middle;whiteSpace=wrap;rounded=0;" parent="1" vertex="1">
          <mxGeometry x="190" y="410" width="100" height="30" as="geometry" />
        </mxCell>
        <mxCell id="8L-WaVjotfStqpqB3ohm-46" value="ASN 65003" style="text;html=1;strokeColor=none;fillColor=none;align=center;verticalAlign=middle;whiteSpace=wrap;rounded=0;" parent="1" vertex="1">
          <mxGeometry x="440" y="410" width="100" height="30" as="geometry" />
        </mxCell>
        <mxCell id="8L-WaVjotfStqpqB3ohm-47" value="ASN 65004" style="text;html=1;strokeColor=none;fillColor=none;align=center;verticalAlign=middle;whiteSpace=wrap;rounded=0;" parent="1" vertex="1">
          <mxGeometry x="710" y="410" width="100" height="30" as="geometry" />
        </mxCell>
        <mxCell id="8L-WaVjotfStqpqB3ohm-58" value="" style="endArrow=none;html=1;rounded=0;fillColor=#dae8fc;strokeColor=#6c8ebf;entryX=0.31;entryY=0.8;entryDx=0;entryDy=0;entryPerimeter=0;exitX=0.5;exitY=0;exitDx=0;exitDy=0;exitPerimeter=0;" parent="1" source="8L-WaVjotfStqpqB3ohm-2" target="8L-WaVjotfStqpqB3ohm-56" edge="1">
          <mxGeometry width="50" height="50" relative="1" as="geometry">
            <mxPoint x="125" y="430" as="sourcePoint" />
            <mxPoint x="395" y="170" as="targetPoint" />
          </mxGeometry>
        </mxCell>
        <mxCell id="8L-WaVjotfStqpqB3ohm-56" value="10.17.0.0/31" style="ellipse;shape=cloud;whiteSpace=wrap;html=1;" parent="1" vertex="1">
          <mxGeometry x="-10" y="260" width="110" height="70" as="geometry" />
        </mxCell>
        <mxCell id="8L-WaVjotfStqpqB3ohm-65" value="" style="endArrow=none;html=1;rounded=0;fillColor=#dae8fc;strokeColor=#6c8ebf;entryX=0.31;entryY=0.8;entryDx=0;entryDy=0;entryPerimeter=0;exitX=0.5;exitY=0;exitDx=0;exitDy=0;exitPerimeter=0;" parent="1" source="8L-WaVjotfStqpqB3ohm-2" target="8L-WaVjotfStqpqB3ohm-57" edge="1">
          <mxGeometry width="50" height="50" relative="1" as="geometry">
            <mxPoint x="125" y="430" as="sourcePoint" />
            <mxPoint x="645" y="170" as="targetPoint" />
          </mxGeometry>
        </mxCell>
        <mxCell id="8L-WaVjotfStqpqB3ohm-57" value="10.17.0.2/31" style="ellipse;shape=cloud;whiteSpace=wrap;html=1;" parent="1" vertex="1">
          <mxGeometry x="110" y="260" width="110" height="70" as="geometry" />
        </mxCell>
        <mxCell id="8L-WaVjotfStqpqB3ohm-66" value="" style="endArrow=none;html=1;rounded=0;fillColor=#dae8fc;strokeColor=#6c8ebf;entryX=0.5;entryY=1;entryDx=0;entryDy=0;entryPerimeter=0;exitX=0.5;exitY=0;exitDx=0;exitDy=0;exitPerimeter=0;" parent="1" source="8L-WaVjotfStqpqB3ohm-4" target="8L-WaVjotfStqpqB3ohm-59" edge="1">
          <mxGeometry width="50" height="50" relative="1" as="geometry">
            <mxPoint x="385" y="430" as="sourcePoint" />
            <mxPoint x="395" y="170" as="targetPoint" />
          </mxGeometry>
        </mxCell>
        <mxCell id="8L-WaVjotfStqpqB3ohm-59" value="10.17.0.4/31" style="ellipse;shape=cloud;whiteSpace=wrap;html=1;" parent="1" vertex="1">
          <mxGeometry x="240" y="260" width="110" height="70" as="geometry" />
        </mxCell>
        <mxCell id="8L-WaVjotfStqpqB3ohm-67" value="" style="endArrow=none;html=1;rounded=0;fillColor=#dae8fc;strokeColor=#6c8ebf;entryX=0.5;entryY=1;entryDx=0;entryDy=0;entryPerimeter=0;exitX=0.5;exitY=0;exitDx=0;exitDy=0;exitPerimeter=0;" parent="1" source="8L-WaVjotfStqpqB3ohm-4" target="8L-WaVjotfStqpqB3ohm-60" edge="1">
          <mxGeometry width="50" height="50" relative="1" as="geometry">
            <mxPoint x="385" y="430" as="sourcePoint" />
            <mxPoint x="645" y="170" as="targetPoint" />
          </mxGeometry>
        </mxCell>
        <mxCell id="8L-WaVjotfStqpqB3ohm-60" value="10.17.0.6/31" style="ellipse;shape=cloud;whiteSpace=wrap;html=1;" parent="1" vertex="1">
          <mxGeometry x="370" y="260" width="110" height="70" as="geometry" />
        </mxCell>
        <mxCell id="8L-WaVjotfStqpqB3ohm-68" value="" style="endArrow=none;html=1;rounded=0;fillColor=#dae8fc;strokeColor=#6c8ebf;entryX=0.5;entryY=1;entryDx=0;entryDy=0;entryPerimeter=0;exitX=0.5;exitY=0;exitDx=0;exitDy=0;exitPerimeter=0;" parent="1" source="8L-WaVjotfStqpqB3ohm-5" target="8L-WaVjotfStqpqB3ohm-61" edge="1">
          <mxGeometry width="50" height="50" relative="1" as="geometry">
            <mxPoint x="645" y="430" as="sourcePoint" />
            <mxPoint x="395" y="170" as="targetPoint" />
          </mxGeometry>
        </mxCell>
        <mxCell id="8L-WaVjotfStqpqB3ohm-61" value="10.17.0.8/31" style="ellipse;shape=cloud;whiteSpace=wrap;html=1;" parent="1" vertex="1">
          <mxGeometry x="490" y="260" width="110" height="70" as="geometry" />
        </mxCell>
        <mxCell id="8L-WaVjotfStqpqB3ohm-69" value="" style="endArrow=none;html=1;rounded=0;fillColor=#dae8fc;strokeColor=#6c8ebf;entryX=0.5;entryY=1;entryDx=0;entryDy=0;entryPerimeter=0;exitX=0.5;exitY=0;exitDx=0;exitDy=0;exitPerimeter=0;" parent="1" source="8L-WaVjotfStqpqB3ohm-5" target="8L-WaVjotfStqpqB3ohm-62" edge="1">
          <mxGeometry width="50" height="50" relative="1" as="geometry">
            <mxPoint x="645" y="430" as="sourcePoint" />
            <mxPoint x="645" y="170" as="targetPoint" />
          </mxGeometry>
        </mxCell>
        <mxCell id="8L-WaVjotfStqpqB3ohm-62" value="10.17.0.10/31" style="ellipse;shape=cloud;whiteSpace=wrap;html=1;" parent="1" vertex="1">
          <mxGeometry x="610" y="260" width="110" height="70" as="geometry" />
        </mxCell>
        <mxCell id="8L-WaVjotfStqpqB3ohm-70" value="" style="endArrow=none;html=1;rounded=0;fillColor=#dae8fc;strokeColor=#6c8ebf;entryX=0.5;entryY=1;entryDx=0;entryDy=0;entryPerimeter=0;exitX=0.5;exitY=0;exitDx=0;exitDy=0;exitPerimeter=0;" parent="1" source="8L-WaVjotfStqpqB3ohm-6" target="8L-WaVjotfStqpqB3ohm-63" edge="1">
          <mxGeometry width="50" height="50" relative="1" as="geometry">
            <mxPoint x="885" y="430" as="sourcePoint" />
            <mxPoint x="395" y="170" as="targetPoint" />
          </mxGeometry>
        </mxCell>
        <mxCell id="8L-WaVjotfStqpqB3ohm-63" value="10.17.0.12/31" style="ellipse;shape=cloud;whiteSpace=wrap;html=1;" parent="1" vertex="1">
          <mxGeometry x="740" y="260" width="110" height="70" as="geometry" />
        </mxCell>
        <mxCell id="8L-WaVjotfStqpqB3ohm-72" value="" style="endArrow=none;html=1;rounded=0;fillColor=#dae8fc;strokeColor=#6c8ebf;entryX=0.5;entryY=1;entryDx=0;entryDy=0;entryPerimeter=0;exitX=0.5;exitY=0;exitDx=0;exitDy=0;exitPerimeter=0;" parent="1" source="8L-WaVjotfStqpqB3ohm-6" target="8L-WaVjotfStqpqB3ohm-71" edge="1">
          <mxGeometry width="50" height="50" relative="1" as="geometry">
            <mxPoint x="885" y="430" as="sourcePoint" />
            <mxPoint x="645" y="170" as="targetPoint" />
          </mxGeometry>
        </mxCell>
        <mxCell id="8L-WaVjotfStqpqB3ohm-71" value="10.17.0.14/31" style="ellipse;shape=cloud;whiteSpace=wrap;html=1;" parent="1" vertex="1">
          <mxGeometry x="870" y="260" width="110" height="70" as="geometry" />
        </mxCell>
        <mxCell id="8L-WaVjotfStqpqB3ohm-73" value=".1" style="text;html=1;strokeColor=none;fillColor=none;align=center;verticalAlign=middle;whiteSpace=wrap;rounded=0;" parent="1" vertex="1">
          <mxGeometry x="-10" y="320" width="60" height="30" as="geometry" />
        </mxCell>
        <mxCell id="8L-WaVjotfStqpqB3ohm-75" value=".3" style="text;html=1;strokeColor=none;fillColor=none;align=center;verticalAlign=middle;whiteSpace=wrap;rounded=0;" parent="1" vertex="1">
          <mxGeometry x="90" y="320" width="60" height="30" as="geometry" />
        </mxCell>
        <mxCell id="8L-WaVjotfStqpqB3ohm-76" value=".0" style="text;html=1;strokeColor=none;fillColor=none;align=center;verticalAlign=middle;whiteSpace=wrap;rounded=0;" parent="1" vertex="1">
          <mxGeometry x="40" y="240" width="60" height="30" as="geometry" />
        </mxCell>
        <mxCell id="8L-WaVjotfStqpqB3ohm-77" value=".2" style="text;html=1;strokeColor=none;fillColor=none;align=center;verticalAlign=middle;whiteSpace=wrap;rounded=0;" parent="1" vertex="1">
          <mxGeometry x="160" y="240" width="60" height="30" as="geometry" />
        </mxCell>
        <mxCell id="8L-WaVjotfStqpqB3ohm-78" value=".5" style="text;html=1;strokeColor=none;fillColor=none;align=center;verticalAlign=middle;whiteSpace=wrap;rounded=0;" parent="1" vertex="1">
          <mxGeometry x="250" y="320" width="60" height="30" as="geometry" />
        </mxCell>
        <mxCell id="8L-WaVjotfStqpqB3ohm-79" value=".7" style="text;html=1;strokeColor=none;fillColor=none;align=center;verticalAlign=middle;whiteSpace=wrap;rounded=0;" parent="1" vertex="1">
          <mxGeometry x="380" y="320" width="60" height="30" as="geometry" />
        </mxCell>
        <mxCell id="8L-WaVjotfStqpqB3ohm-80" value=".9" style="text;html=1;strokeColor=none;fillColor=none;align=center;verticalAlign=middle;whiteSpace=wrap;rounded=0;" parent="1" vertex="1">
          <mxGeometry x="500" y="320" width="60" height="30" as="geometry" />
        </mxCell>
        <mxCell id="8L-WaVjotfStqpqB3ohm-81" value=".11" style="text;html=1;strokeColor=none;fillColor=none;align=center;verticalAlign=middle;whiteSpace=wrap;rounded=0;" parent="1" vertex="1">
          <mxGeometry x="620" y="320" width="60" height="30" as="geometry" />
        </mxCell>
        <mxCell id="8L-WaVjotfStqpqB3ohm-82" value=".13" style="text;html=1;strokeColor=none;fillColor=none;align=center;verticalAlign=middle;whiteSpace=wrap;rounded=0;" parent="1" vertex="1">
          <mxGeometry x="750" y="320" width="60" height="30" as="geometry" />
        </mxCell>
        <mxCell id="8L-WaVjotfStqpqB3ohm-83" value=".15" style="text;html=1;strokeColor=none;fillColor=none;align=center;verticalAlign=middle;whiteSpace=wrap;rounded=0;" parent="1" vertex="1">
          <mxGeometry x="880" y="320" width="60" height="30" as="geometry" />
        </mxCell>
        <mxCell id="8L-WaVjotfStqpqB3ohm-84" value=".4" style="text;html=1;strokeColor=none;fillColor=none;align=center;verticalAlign=middle;whiteSpace=wrap;rounded=0;" parent="1" vertex="1">
          <mxGeometry x="270" y="240" width="60" height="30" as="geometry" />
        </mxCell>
        <mxCell id="8L-WaVjotfStqpqB3ohm-86" value=".6" style="text;html=1;strokeColor=none;fillColor=none;align=center;verticalAlign=middle;whiteSpace=wrap;rounded=0;" parent="1" vertex="1">
          <mxGeometry x="410" y="240" width="60" height="30" as="geometry" />
        </mxCell>
        <mxCell id="8L-WaVjotfStqpqB3ohm-87" value=".8" style="text;html=1;strokeColor=none;fillColor=none;align=center;verticalAlign=middle;whiteSpace=wrap;rounded=0;" parent="1" vertex="1">
          <mxGeometry x="480" y="240" width="60" height="30" as="geometry" />
        </mxCell>
        <mxCell id="8L-WaVjotfStqpqB3ohm-89" value=".10" style="text;html=1;strokeColor=none;fillColor=none;align=center;verticalAlign=middle;whiteSpace=wrap;rounded=0;" parent="1" vertex="1">
          <mxGeometry x="610" y="240" width="60" height="30" as="geometry" />
        </mxCell>
        <mxCell id="8L-WaVjotfStqpqB3ohm-90" value=".12" style="text;html=1;strokeColor=none;fillColor=none;align=center;verticalAlign=middle;whiteSpace=wrap;rounded=0;" parent="1" vertex="1">
          <mxGeometry x="720" y="240" width="60" height="30" as="geometry" />
        </mxCell>
        <mxCell id="8L-WaVjotfStqpqB3ohm-91" value=".14" style="text;html=1;strokeColor=none;fillColor=none;align=center;verticalAlign=middle;whiteSpace=wrap;rounded=0;" parent="1" vertex="1">
          <mxGeometry x="860" y="240" width="60" height="30" as="geometry" />
        </mxCell>
      </root>
    </mxGraphModel>
  </diagram>
  <diagram name="overlay" id="zEquMixuMaqfaKCyzX-D">
    <mxGraphModel dx="1621" dy="519" grid="1" gridSize="10" guides="1" tooltips="1" connect="1" arrows="1" fold="1" page="1" pageScale="1" pageWidth="827" pageHeight="1169" math="0" shadow="0">
      <root>
        <mxCell id="TQOCrD3G0PS0iRQCBSvK-0" />
        <mxCell id="TQOCrD3G0PS0iRQCBSvK-1" parent="TQOCrD3G0PS0iRQCBSvK-0" />
        <mxCell id="TQOCrD3G0PS0iRQCBSvK-2" value="&lt;font style=&quot;font-size: 25px;&quot;&gt;eBGP/eBGP&lt;/font&gt;" style="ellipse;shape=cloud;whiteSpace=wrap;html=1;fillColor=#bac8d3;strokeColor=#23445d;opacity=40;textOpacity=40;" parent="TQOCrD3G0PS0iRQCBSvK-1" vertex="1">
          <mxGeometry x="-160" y="130" width="1250" height="460" as="geometry" />
        </mxCell>
        <mxCell id="TQOCrD3G0PS0iRQCBSvK-3" value="" style="rounded=1;whiteSpace=wrap;html=1;fillColor=#f5f5f5;strokeColor=#666666;fontColor=#333333;" parent="TQOCrD3G0PS0iRQCBSvK-1" vertex="1">
          <mxGeometry x="450" y="410" width="220" height="100" as="geometry" />
        </mxCell>
        <mxCell id="TQOCrD3G0PS0iRQCBSvK-4" value="" style="rounded=1;whiteSpace=wrap;html=1;fillColor=#f5f5f5;strokeColor=#666666;fontColor=#333333;" parent="TQOCrD3G0PS0iRQCBSvK-1" vertex="1">
          <mxGeometry x="720" y="410" width="220" height="100" as="geometry" />
        </mxCell>
        <mxCell id="TQOCrD3G0PS0iRQCBSvK-5" value="" style="rounded=1;whiteSpace=wrap;html=1;fillColor=#f5f5f5;strokeColor=#666666;fontColor=#333333;" parent="TQOCrD3G0PS0iRQCBSvK-1" vertex="1">
          <mxGeometry x="200" y="410" width="220" height="100" as="geometry" />
        </mxCell>
        <mxCell id="TQOCrD3G0PS0iRQCBSvK-6" value="" style="rounded=1;whiteSpace=wrap;html=1;fillColor=#f5f5f5;strokeColor=#666666;fontColor=#333333;" parent="TQOCrD3G0PS0iRQCBSvK-1" vertex="1">
          <mxGeometry x="-70" y="410" width="220" height="100" as="geometry" />
        </mxCell>
        <mxCell id="TQOCrD3G0PS0iRQCBSvK-7" value="" style="rounded=1;whiteSpace=wrap;html=1;fillColor=#e1d5e7;strokeColor=#9673a6;" parent="TQOCrD3G0PS0iRQCBSvK-1" vertex="1">
          <mxGeometry x="210" y="90" width="510" height="110" as="geometry" />
        </mxCell>
        <mxCell id="TQOCrD3G0PS0iRQCBSvK-8" value="otus-spine-sw01" style="sketch=0;points=[[0.015,0.015,0],[0.985,0.015,0],[0.985,0.985,0],[0.015,0.985,0],[0.25,0,0],[0.5,0,0],[0.75,0,0],[1,0.25,0],[1,0.5,0],[1,0.75,0],[0.75,1,0],[0.5,1,0],[0.25,1,0],[0,0.75,0],[0,0.5,0],[0,0.25,0]];verticalLabelPosition=middle;html=1;verticalAlign=middle;aspect=fixed;align=right;pointerEvents=1;shape=mxgraph.cisco19.rect;prIcon=l2_switch;fillColor=#dae8fc;strokeColor=#6c8ebf;labelPosition=left;" parent="TQOCrD3G0PS0iRQCBSvK-1" vertex="1">
          <mxGeometry x="310" y="120" width="50" height="50" as="geometry" />
        </mxCell>
        <mxCell id="TQOCrD3G0PS0iRQCBSvK-9" value="otus-leaf-sw01" style="sketch=0;points=[[0.015,0.015,0],[0.985,0.015,0],[0.985,0.985,0],[0.015,0.985,0],[0.25,0,0],[0.5,0,0],[0.75,0,0],[1,0.25,0],[1,0.5,0],[1,0.75,0],[0.75,1,0],[0.5,1,0],[0.25,1,0],[0,0.75,0],[0,0.5,0],[0,0.25,0]];verticalLabelPosition=middle;html=1;verticalAlign=middle;aspect=fixed;align=right;pointerEvents=1;shape=mxgraph.cisco19.rect;prIcon=l2_switch;fillColor=#fff2cc;strokeColor=#d6b656;labelPosition=left;" parent="TQOCrD3G0PS0iRQCBSvK-1" vertex="1">
          <mxGeometry x="70" y="430" width="50" height="50" as="geometry" />
        </mxCell>
        <mxCell id="TQOCrD3G0PS0iRQCBSvK-10" value="otus-spine-sw02" style="sketch=0;points=[[0.015,0.015,0],[0.985,0.015,0],[0.985,0.985,0],[0.015,0.985,0],[0.25,0,0],[0.5,0,0],[0.75,0,0],[1,0.25,0],[1,0.5,0],[1,0.75,0],[0.75,1,0],[0.5,1,0],[0.25,1,0],[0,0.75,0],[0,0.5,0],[0,0.25,0]];verticalLabelPosition=middle;html=1;verticalAlign=middle;aspect=fixed;align=left;pointerEvents=1;shape=mxgraph.cisco19.rect;prIcon=l2_switch;fillColor=#dae8fc;strokeColor=#6c8ebf;labelPosition=right;" parent="TQOCrD3G0PS0iRQCBSvK-1" vertex="1">
          <mxGeometry x="560" y="120" width="50" height="50" as="geometry" />
        </mxCell>
        <mxCell id="TQOCrD3G0PS0iRQCBSvK-11" value="otus-leaf-sw02" style="sketch=0;points=[[0.015,0.015,0],[0.985,0.015,0],[0.985,0.985,0],[0.015,0.985,0],[0.25,0,0],[0.5,0,0],[0.75,0,0],[1,0.25,0],[1,0.5,0],[1,0.75,0],[0.75,1,0],[0.5,1,0],[0.25,1,0],[0,0.75,0],[0,0.5,0],[0,0.25,0]];verticalLabelPosition=middle;html=1;verticalAlign=middle;aspect=fixed;align=right;pointerEvents=1;shape=mxgraph.cisco19.rect;prIcon=l2_switch;fillColor=#fff2cc;strokeColor=#d6b656;labelPosition=left;" parent="TQOCrD3G0PS0iRQCBSvK-1" vertex="1">
          <mxGeometry x="340" y="430" width="50" height="50" as="geometry" />
        </mxCell>
        <mxCell id="TQOCrD3G0PS0iRQCBSvK-12" value="otus-leaf-sw03" style="sketch=0;points=[[0.015,0.015,0],[0.985,0.015,0],[0.985,0.985,0],[0.015,0.985,0],[0.25,0,0],[0.5,0,0],[0.75,0,0],[1,0.25,0],[1,0.5,0],[1,0.75,0],[0.75,1,0],[0.5,1,0],[0.25,1,0],[0,0.75,0],[0,0.5,0],[0,0.25,0]];verticalLabelPosition=middle;html=1;verticalAlign=middle;aspect=fixed;align=right;pointerEvents=1;shape=mxgraph.cisco19.rect;prIcon=l2_switch;fillColor=#d5e8d4;strokeColor=#82b366;labelPosition=left;" parent="TQOCrD3G0PS0iRQCBSvK-1" vertex="1">
          <mxGeometry x="590" y="430" width="50" height="50" as="geometry" />
        </mxCell>
        <mxCell id="TQOCrD3G0PS0iRQCBSvK-13" value="otus-leaf-sw04" style="sketch=0;points=[[0.015,0.015,0],[0.985,0.015,0],[0.985,0.985,0],[0.015,0.985,0],[0.25,0,0],[0.5,0,0],[0.75,0,0],[1,0.25,0],[1,0.5,0],[1,0.75,0],[0.75,1,0],[0.5,1,0],[0.25,1,0],[0,0.75,0],[0,0.5,0],[0,0.25,0]];verticalLabelPosition=middle;html=1;verticalAlign=middle;aspect=fixed;align=right;pointerEvents=1;shape=mxgraph.cisco19.rect;prIcon=l2_switch;fillColor=#d5e8d4;strokeColor=#82b366;labelPosition=left;" parent="TQOCrD3G0PS0iRQCBSvK-1" vertex="1">
          <mxGeometry x="860" y="430" width="50" height="50" as="geometry" />
        </mxCell>
        <mxCell id="TQOCrD3G0PS0iRQCBSvK-14" value="" style="endArrow=none;html=1;rounded=0;fillColor=#dae8fc;strokeColor=#6c8ebf;entryX=0.5;entryY=1;entryDx=0;entryDy=0;entryPerimeter=0;exitX=0.5;exitY=0;exitDx=0;exitDy=0;" parent="TQOCrD3G0PS0iRQCBSvK-1" source="TQOCrD3G0PS0iRQCBSvK-6" target="TQOCrD3G0PS0iRQCBSvK-8" edge="1">
          <mxGeometry width="50" height="50" relative="1" as="geometry">
            <mxPoint x="58.75" y="274" as="sourcePoint" />
            <mxPoint x="550" y="210" as="targetPoint" />
          </mxGeometry>
        </mxCell>
        <mxCell id="TQOCrD3G0PS0iRQCBSvK-15" value="" style="endArrow=none;html=1;rounded=0;fillColor=#dae8fc;strokeColor=#6c8ebf;entryX=0.5;entryY=1;entryDx=0;entryDy=0;entryPerimeter=0;exitX=0.5;exitY=0;exitDx=0;exitDy=0;" parent="TQOCrD3G0PS0iRQCBSvK-1" source="TQOCrD3G0PS0iRQCBSvK-5" target="TQOCrD3G0PS0iRQCBSvK-8" edge="1">
          <mxGeometry width="50" height="50" relative="1" as="geometry">
            <mxPoint x="308.75" y="274" as="sourcePoint" />
            <mxPoint x="235" y="180" as="targetPoint" />
          </mxGeometry>
        </mxCell>
        <mxCell id="TQOCrD3G0PS0iRQCBSvK-16" value="" style="endArrow=none;html=1;rounded=0;fillColor=#dae8fc;strokeColor=#6c8ebf;entryX=0.5;entryY=1;entryDx=0;entryDy=0;entryPerimeter=0;exitX=0.5;exitY=0;exitDx=0;exitDy=0;" parent="TQOCrD3G0PS0iRQCBSvK-1" source="TQOCrD3G0PS0iRQCBSvK-3" target="TQOCrD3G0PS0iRQCBSvK-8" edge="1">
          <mxGeometry width="50" height="50" relative="1" as="geometry">
            <mxPoint x="517.5" y="277.5" as="sourcePoint" />
            <mxPoint x="235" y="180" as="targetPoint" />
          </mxGeometry>
        </mxCell>
        <mxCell id="TQOCrD3G0PS0iRQCBSvK-17" value="" style="endArrow=none;html=1;rounded=0;fillColor=#dae8fc;strokeColor=#6c8ebf;entryX=0.5;entryY=1;entryDx=0;entryDy=0;entryPerimeter=0;exitX=0.5;exitY=0;exitDx=0;exitDy=0;" parent="TQOCrD3G0PS0iRQCBSvK-1" source="TQOCrD3G0PS0iRQCBSvK-4" target="TQOCrD3G0PS0iRQCBSvK-8" edge="1">
          <mxGeometry width="50" height="50" relative="1" as="geometry">
            <mxPoint x="767.5" y="277.5" as="sourcePoint" />
            <mxPoint x="235" y="180" as="targetPoint" />
          </mxGeometry>
        </mxCell>
        <mxCell id="TQOCrD3G0PS0iRQCBSvK-18" value="" style="endArrow=none;html=1;rounded=0;fillColor=#dae8fc;strokeColor=#6c8ebf;entryX=0.5;entryY=1;entryDx=0;entryDy=0;entryPerimeter=0;exitX=0.5;exitY=0;exitDx=0;exitDy=0;" parent="TQOCrD3G0PS0iRQCBSvK-1" source="TQOCrD3G0PS0iRQCBSvK-4" target="TQOCrD3G0PS0iRQCBSvK-10" edge="1">
          <mxGeometry width="50" height="50" relative="1" as="geometry">
            <mxPoint x="897.5" y="277.5" as="sourcePoint" />
            <mxPoint x="315" y="180" as="targetPoint" />
          </mxGeometry>
        </mxCell>
        <mxCell id="TQOCrD3G0PS0iRQCBSvK-19" value="" style="endArrow=none;html=1;rounded=0;fillColor=#dae8fc;strokeColor=#6c8ebf;entryX=0.5;entryY=1;entryDx=0;entryDy=0;entryPerimeter=0;exitX=0.5;exitY=0;exitDx=0;exitDy=0;" parent="TQOCrD3G0PS0iRQCBSvK-1" source="TQOCrD3G0PS0iRQCBSvK-6" target="TQOCrD3G0PS0iRQCBSvK-10" edge="1">
          <mxGeometry width="50" height="50" relative="1" as="geometry">
            <mxPoint x="178.75" y="274" as="sourcePoint" />
            <mxPoint x="455" y="180" as="targetPoint" />
          </mxGeometry>
        </mxCell>
        <mxCell id="TQOCrD3G0PS0iRQCBSvK-20" value="" style="endArrow=none;html=1;rounded=0;fillColor=#dae8fc;strokeColor=#6c8ebf;entryX=0.5;entryY=1;entryDx=0;entryDy=0;entryPerimeter=0;exitX=0.5;exitY=0;exitDx=0;exitDy=0;" parent="TQOCrD3G0PS0iRQCBSvK-1" source="TQOCrD3G0PS0iRQCBSvK-5" target="TQOCrD3G0PS0iRQCBSvK-10" edge="1">
          <mxGeometry width="50" height="50" relative="1" as="geometry">
            <mxPoint x="438.75" y="274" as="sourcePoint" />
            <mxPoint x="455" y="180" as="targetPoint" />
          </mxGeometry>
        </mxCell>
        <mxCell id="TQOCrD3G0PS0iRQCBSvK-21" value="" style="endArrow=none;html=1;rounded=0;fillColor=#dae8fc;strokeColor=#6c8ebf;entryX=0.5;entryY=1;entryDx=0;entryDy=0;entryPerimeter=0;exitX=0.5;exitY=0;exitDx=0;exitDy=0;" parent="TQOCrD3G0PS0iRQCBSvK-1" source="TQOCrD3G0PS0iRQCBSvK-3" target="TQOCrD3G0PS0iRQCBSvK-10" edge="1">
          <mxGeometry width="50" height="50" relative="1" as="geometry">
            <mxPoint x="678.75" y="274" as="sourcePoint" />
            <mxPoint x="455" y="180" as="targetPoint" />
          </mxGeometry>
        </mxCell>
        <mxCell id="TQOCrD3G0PS0iRQCBSvK-22" value="Площадка OTUS&amp;nbsp;XVII" style="text;html=1;strokeColor=none;fillColor=none;align=center;verticalAlign=middle;whiteSpace=wrap;rounded=0;fontSize=18;fontStyle=1;fontFamily=Verdana;" parent="TQOCrD3G0PS0iRQCBSvK-1" vertex="1">
          <mxGeometry x="318.87" y="50" width="314" height="30" as="geometry" />
        </mxCell>
        <mxCell id="TQOCrD3G0PS0iRQCBSvK-23" value="ASN 65000" style="text;html=1;strokeColor=none;fillColor=none;align=center;verticalAlign=middle;whiteSpace=wrap;rounded=0;" parent="TQOCrD3G0PS0iRQCBSvK-1" vertex="1">
          <mxGeometry x="410" y="120" width="100" height="30" as="geometry" />
        </mxCell>
        <mxCell id="TQOCrD3G0PS0iRQCBSvK-24" value="ASN 65001" style="text;html=1;align=center;verticalAlign=middle;whiteSpace=wrap;rounded=0;" parent="TQOCrD3G0PS0iRQCBSvK-1" vertex="1">
          <mxGeometry x="-80" y="410" width="100" height="30" as="geometry" />
        </mxCell>
        <mxCell id="TQOCrD3G0PS0iRQCBSvK-25" value="ASN 65002" style="text;html=1;strokeColor=none;fillColor=none;align=center;verticalAlign=middle;whiteSpace=wrap;rounded=0;" parent="TQOCrD3G0PS0iRQCBSvK-1" vertex="1">
          <mxGeometry x="190" y="410" width="100" height="30" as="geometry" />
        </mxCell>
        <mxCell id="TQOCrD3G0PS0iRQCBSvK-26" value="ASN 65003" style="text;html=1;strokeColor=none;fillColor=none;align=center;verticalAlign=middle;whiteSpace=wrap;rounded=0;" parent="TQOCrD3G0PS0iRQCBSvK-1" vertex="1">
          <mxGeometry x="440" y="410" width="100" height="30" as="geometry" />
        </mxCell>
        <mxCell id="TQOCrD3G0PS0iRQCBSvK-27" value="ASN 65004" style="text;html=1;strokeColor=none;fillColor=none;align=center;verticalAlign=middle;whiteSpace=wrap;rounded=0;" parent="TQOCrD3G0PS0iRQCBSvK-1" vertex="1">
          <mxGeometry x="710" y="410" width="100" height="30" as="geometry" />
        </mxCell>
        <mxCell id="lmROS96IvObYhTMJxpAt-0" value="lo:10.17.0.128" style="text;html=1;strokeColor=none;fillColor=none;align=center;verticalAlign=middle;whiteSpace=wrap;rounded=0;" parent="TQOCrD3G0PS0iRQCBSvK-1" vertex="1">
          <mxGeometry x="305" y="90" width="60" height="30" as="geometry" />
        </mxCell>
        <mxCell id="lmROS96IvObYhTMJxpAt-1" value="lo:10.17.0.129" style="text;html=1;strokeColor=none;fillColor=none;align=center;verticalAlign=middle;whiteSpace=wrap;rounded=0;" parent="TQOCrD3G0PS0iRQCBSvK-1" vertex="1">
          <mxGeometry x="555" y="90" width="60" height="30" as="geometry" />
        </mxCell>
        <mxCell id="lmROS96IvObYhTMJxpAt-2" value="lo:10.17.0.130" style="text;html=1;strokeColor=none;fillColor=none;align=center;verticalAlign=middle;whiteSpace=wrap;rounded=0;" parent="TQOCrD3G0PS0iRQCBSvK-1" vertex="1">
          <mxGeometry x="-40" y="470" width="60" height="30" as="geometry" />
        </mxCell>
        <mxCell id="lmROS96IvObYhTMJxpAt-4" value="lo:10.17.0.131" style="text;html=1;strokeColor=none;fillColor=none;align=center;verticalAlign=middle;whiteSpace=wrap;rounded=0;" parent="TQOCrD3G0PS0iRQCBSvK-1" vertex="1">
          <mxGeometry x="220" y="470" width="60" height="30" as="geometry" />
        </mxCell>
        <mxCell id="lmROS96IvObYhTMJxpAt-5" value="lo:10.17.0.132" style="text;html=1;strokeColor=none;fillColor=none;align=center;verticalAlign=middle;whiteSpace=wrap;rounded=0;" parent="TQOCrD3G0PS0iRQCBSvK-1" vertex="1">
          <mxGeometry x="470" y="470" width="60" height="30" as="geometry" />
        </mxCell>
        <mxCell id="lmROS96IvObYhTMJxpAt-6" value="lo:10.17.0.133" style="text;html=1;strokeColor=none;fillColor=none;align=center;verticalAlign=middle;whiteSpace=wrap;rounded=0;" parent="TQOCrD3G0PS0iRQCBSvK-1" vertex="1">
          <mxGeometry x="740" y="470" width="60" height="30" as="geometry" />
        </mxCell>
      </root>
    </mxGraphModel>
  </diagram>
  <diagram id="8hl7zcjCwk5mQKom59tE" name="L2VNI">
    <mxGraphModel dx="1323" dy="865" grid="1" gridSize="10" guides="1" tooltips="1" connect="1" arrows="1" fold="1" page="1" pageScale="1" pageWidth="827" pageHeight="1169" math="0" shadow="0">
      <root>
        <mxCell id="0" />
        <mxCell id="1" parent="0" />
        <mxCell id="fWA62hPhyV59vMPXqy70-7" value="otus-spine-sw01" style="sketch=0;points=[[0.015,0.015,0],[0.985,0.015,0],[0.985,0.985,0],[0.015,0.985,0],[0.25,0,0],[0.5,0,0],[0.75,0,0],[1,0.25,0],[1,0.5,0],[1,0.75,0],[0.75,1,0],[0.5,1,0],[0.25,1,0],[0,0.75,0],[0,0.5,0],[0,0.25,0]];verticalLabelPosition=middle;html=1;verticalAlign=middle;aspect=fixed;align=right;pointerEvents=1;shape=mxgraph.cisco19.rect;prIcon=l2_switch;fillColor=#dae8fc;strokeColor=#6c8ebf;labelPosition=left;" vertex="1" parent="1">
          <mxGeometry x="770" y="340" width="50" height="50" as="geometry" />
        </mxCell>
        <mxCell id="fWA62hPhyV59vMPXqy70-8" value="otus-leaf-sw01" style="sketch=0;points=[[0.015,0.015,0],[0.985,0.015,0],[0.985,0.985,0],[0.015,0.985,0],[0.25,0,0],[0.5,0,0],[0.75,0,0],[1,0.25,0],[1,0.5,0],[1,0.75,0],[0.75,1,0],[0.5,1,0],[0.25,1,0],[0,0.75,0],[0,0.5,0],[0,0.25,0]];verticalLabelPosition=middle;html=1;verticalAlign=middle;aspect=fixed;align=right;pointerEvents=1;shape=mxgraph.cisco19.rect;prIcon=l2_switch;fillColor=#fff2cc;strokeColor=#d6b656;labelPosition=left;" vertex="1" parent="1">
          <mxGeometry x="530" y="650" width="50" height="50" as="geometry" />
        </mxCell>
        <mxCell id="fWA62hPhyV59vMPXqy70-9" value="otus-spine-sw02" style="sketch=0;points=[[0.015,0.015,0],[0.985,0.015,0],[0.985,0.985,0],[0.015,0.985,0],[0.25,0,0],[0.5,0,0],[0.75,0,0],[1,0.25,0],[1,0.5,0],[1,0.75,0],[0.75,1,0],[0.5,1,0],[0.25,1,0],[0,0.75,0],[0,0.5,0],[0,0.25,0]];verticalLabelPosition=middle;html=1;verticalAlign=middle;aspect=fixed;align=left;pointerEvents=1;shape=mxgraph.cisco19.rect;prIcon=l2_switch;fillColor=#dae8fc;strokeColor=#6c8ebf;labelPosition=right;" vertex="1" parent="1">
          <mxGeometry x="1020" y="340" width="50" height="50" as="geometry" />
        </mxCell>
        <mxCell id="fWA62hPhyV59vMPXqy70-10" value="otus-leaf-sw02" style="sketch=0;points=[[0.015,0.015,0],[0.985,0.015,0],[0.985,0.985,0],[0.015,0.985,0],[0.25,0,0],[0.5,0,0],[0.75,0,0],[1,0.25,0],[1,0.5,0],[1,0.75,0],[0.75,1,0],[0.5,1,0],[0.25,1,0],[0,0.75,0],[0,0.5,0],[0,0.25,0]];verticalLabelPosition=middle;html=1;verticalAlign=middle;aspect=fixed;align=right;pointerEvents=1;shape=mxgraph.cisco19.rect;prIcon=l2_switch;fillColor=#fff2cc;strokeColor=#d6b656;labelPosition=left;" vertex="1" parent="1">
          <mxGeometry x="800" y="650" width="50" height="50" as="geometry" />
        </mxCell>
        <mxCell id="fWA62hPhyV59vMPXqy70-11" value="otus-leaf-sw03" style="sketch=0;points=[[0.015,0.015,0],[0.985,0.015,0],[0.985,0.985,0],[0.015,0.985,0],[0.25,0,0],[0.5,0,0],[0.75,0,0],[1,0.25,0],[1,0.5,0],[1,0.75,0],[0.75,1,0],[0.5,1,0],[0.25,1,0],[0,0.75,0],[0,0.5,0],[0,0.25,0]];verticalLabelPosition=middle;html=1;verticalAlign=middle;aspect=fixed;align=right;pointerEvents=1;shape=mxgraph.cisco19.rect;prIcon=l2_switch;fillColor=#d5e8d4;strokeColor=#82b366;labelPosition=left;" vertex="1" parent="1">
          <mxGeometry x="1050" y="650" width="50" height="50" as="geometry" />
        </mxCell>
        <mxCell id="fWA62hPhyV59vMPXqy70-12" value="otus-leaf-sw04" style="sketch=0;points=[[0.015,0.015,0],[0.985,0.015,0],[0.985,0.985,0],[0.015,0.985,0],[0.25,0,0],[0.5,0,0],[0.75,0,0],[1,0.25,0],[1,0.5,0],[1,0.75,0],[0.75,1,0],[0.5,1,0],[0.25,1,0],[0,0.75,0],[0,0.5,0],[0,0.25,0]];verticalLabelPosition=middle;html=1;verticalAlign=middle;aspect=fixed;align=right;pointerEvents=1;shape=mxgraph.cisco19.rect;prIcon=l2_switch;fillColor=#d5e8d4;strokeColor=#82b366;labelPosition=left;" vertex="1" parent="1">
          <mxGeometry x="1320" y="650" width="50" height="50" as="geometry" />
        </mxCell>
        <mxCell id="fWA62hPhyV59vMPXqy70-13" value="" style="endArrow=none;html=1;rounded=0;fillColor=#dae8fc;strokeColor=#6c8ebf;entryX=0.5;entryY=1;entryDx=0;entryDy=0;entryPerimeter=0;exitX=0.5;exitY=0;exitDx=0;exitDy=0;exitPerimeter=0;" edge="1" parent="1" source="fWA62hPhyV59vMPXqy70-8" target="fWA62hPhyV59vMPXqy70-7">
          <mxGeometry width="50" height="50" relative="1" as="geometry">
            <mxPoint x="499.9999999999998" y="630" as="sourcePoint" />
            <mxPoint x="1010" y="430" as="targetPoint" />
          </mxGeometry>
        </mxCell>
        <mxCell id="fWA62hPhyV59vMPXqy70-14" value="" style="endArrow=none;html=1;rounded=0;fillColor=#dae8fc;strokeColor=#6c8ebf;entryX=0.5;entryY=1;entryDx=0;entryDy=0;entryPerimeter=0;exitX=0.5;exitY=0;exitDx=0;exitDy=0;exitPerimeter=0;" edge="1" parent="1" source="fWA62hPhyV59vMPXqy70-10" target="fWA62hPhyV59vMPXqy70-7">
          <mxGeometry width="50" height="50" relative="1" as="geometry">
            <mxPoint x="769.9999999999998" y="630" as="sourcePoint" />
            <mxPoint x="695" y="400" as="targetPoint" />
          </mxGeometry>
        </mxCell>
        <mxCell id="fWA62hPhyV59vMPXqy70-15" value="" style="endArrow=none;html=1;rounded=0;fillColor=#dae8fc;strokeColor=#6c8ebf;entryX=0.5;entryY=1;entryDx=0;entryDy=0;entryPerimeter=0;exitX=0.5;exitY=0;exitDx=0;exitDy=0;exitPerimeter=0;" edge="1" parent="1" source="fWA62hPhyV59vMPXqy70-11" target="fWA62hPhyV59vMPXqy70-7">
          <mxGeometry width="50" height="50" relative="1" as="geometry">
            <mxPoint x="1020" y="630" as="sourcePoint" />
            <mxPoint x="695" y="400" as="targetPoint" />
          </mxGeometry>
        </mxCell>
        <mxCell id="fWA62hPhyV59vMPXqy70-16" value="" style="endArrow=none;html=1;rounded=0;fillColor=#dae8fc;strokeColor=#6c8ebf;entryX=0.5;entryY=1;entryDx=0;entryDy=0;entryPerimeter=0;exitX=0.5;exitY=0;exitDx=0;exitDy=0;exitPerimeter=0;" edge="1" parent="1" source="fWA62hPhyV59vMPXqy70-12" target="fWA62hPhyV59vMPXqy70-7">
          <mxGeometry width="50" height="50" relative="1" as="geometry">
            <mxPoint x="1290" y="630" as="sourcePoint" />
            <mxPoint x="695" y="400" as="targetPoint" />
          </mxGeometry>
        </mxCell>
        <mxCell id="fWA62hPhyV59vMPXqy70-17" value="" style="endArrow=none;html=1;rounded=0;fillColor=#dae8fc;strokeColor=#6c8ebf;entryX=0.5;entryY=1;entryDx=0;entryDy=0;entryPerimeter=0;exitX=0.5;exitY=0;exitDx=0;exitDy=0;exitPerimeter=0;" edge="1" parent="1" source="fWA62hPhyV59vMPXqy70-12" target="fWA62hPhyV59vMPXqy70-9">
          <mxGeometry width="50" height="50" relative="1" as="geometry">
            <mxPoint x="1290" y="630" as="sourcePoint" />
            <mxPoint x="775" y="400" as="targetPoint" />
          </mxGeometry>
        </mxCell>
        <mxCell id="fWA62hPhyV59vMPXqy70-18" value="" style="endArrow=none;html=1;rounded=0;fillColor=#dae8fc;strokeColor=#6c8ebf;entryX=0.5;entryY=1;entryDx=0;entryDy=0;entryPerimeter=0;exitX=0.5;exitY=0;exitDx=0;exitDy=0;exitPerimeter=0;" edge="1" parent="1" source="fWA62hPhyV59vMPXqy70-8" target="fWA62hPhyV59vMPXqy70-9">
          <mxGeometry width="50" height="50" relative="1" as="geometry">
            <mxPoint x="499.9999999999998" y="630" as="sourcePoint" />
            <mxPoint x="915" y="400" as="targetPoint" />
          </mxGeometry>
        </mxCell>
        <mxCell id="fWA62hPhyV59vMPXqy70-19" value="" style="endArrow=none;html=1;rounded=0;fillColor=#dae8fc;strokeColor=#6c8ebf;entryX=0.5;entryY=1;entryDx=0;entryDy=0;entryPerimeter=0;exitX=0.5;exitY=0;exitDx=0;exitDy=0;exitPerimeter=0;" edge="1" parent="1" source="fWA62hPhyV59vMPXqy70-10" target="fWA62hPhyV59vMPXqy70-9">
          <mxGeometry width="50" height="50" relative="1" as="geometry">
            <mxPoint x="769.9999999999998" y="630" as="sourcePoint" />
            <mxPoint x="915" y="400" as="targetPoint" />
          </mxGeometry>
        </mxCell>
        <mxCell id="fWA62hPhyV59vMPXqy70-20" value="" style="endArrow=none;html=1;rounded=0;fillColor=#dae8fc;strokeColor=#6c8ebf;entryX=0.5;entryY=1;entryDx=0;entryDy=0;entryPerimeter=0;exitX=0.5;exitY=0;exitDx=0;exitDy=0;exitPerimeter=0;" edge="1" parent="1" source="fWA62hPhyV59vMPXqy70-11" target="fWA62hPhyV59vMPXqy70-9">
          <mxGeometry width="50" height="50" relative="1" as="geometry">
            <mxPoint x="1020" y="630" as="sourcePoint" />
            <mxPoint x="915" y="400" as="targetPoint" />
          </mxGeometry>
        </mxCell>
        <mxCell id="fWA62hPhyV59vMPXqy70-21" value="Площадка OTUS&amp;nbsp;XVII" style="text;html=1;strokeColor=none;fillColor=none;align=center;verticalAlign=middle;whiteSpace=wrap;rounded=0;fontSize=18;fontStyle=1;fontFamily=Verdana;" vertex="1" parent="1">
          <mxGeometry x="778.87" y="270" width="314" height="30" as="geometry" />
        </mxCell>
        <mxCell id="fWA62hPhyV59vMPXqy70-33" value="vni 0170100&amp;nbsp;otus-l2-connection-1" style="rounded=1;whiteSpace=wrap;html=1;fillColor=#b0e3e6;strokeColor=#0e8088;" vertex="1" parent="1">
          <mxGeometry x="540" y="610" width="830" height="30" as="geometry" />
        </mxCell>
        <mxCell id="fWA62hPhyV59vMPXqy70-34" value="vni 0170101&amp;nbsp;otus-l2-connection-0" style="rounded=1;whiteSpace=wrap;html=1;fillColor=#fad9d5;strokeColor=#ae4132;" vertex="1" parent="1">
          <mxGeometry x="540" y="560" width="830" height="30" as="geometry" />
        </mxCell>
        <mxCell id="Z4P9S87ZiHfv59hoZmDy-1" value="" style="endArrow=none;html=1;rounded=0;fillColor=#dae8fc;strokeColor=#D79B00;entryX=0.5;entryY=1;entryDx=0;entryDy=0;entryPerimeter=0;exitX=0;exitY=0;exitDx=0;exitDy=0;" edge="1" parent="1" source="Z4P9S87ZiHfv59hoZmDy-16" target="fWA62hPhyV59vMPXqy70-8">
          <mxGeometry width="50" height="50" relative="1" as="geometry">
            <mxPoint x="880" y="670" as="sourcePoint" />
            <mxPoint x="845" y="700" as="targetPoint" />
          </mxGeometry>
        </mxCell>
        <mxCell id="Z4P9S87ZiHfv59hoZmDy-2" value="" style="endArrow=none;html=1;rounded=0;fillColor=#ffe6cc;strokeColor=#D79B00;entryX=0.5;entryY=1;entryDx=0;entryDy=0;entryPerimeter=0;exitX=1;exitY=0;exitDx=0;exitDy=0;" edge="1" parent="1" source="Z4P9S87ZiHfv59hoZmDy-16" target="fWA62hPhyV59vMPXqy70-10">
          <mxGeometry width="50" height="50" relative="1" as="geometry">
            <mxPoint x="950" y="820" as="sourcePoint" />
            <mxPoint x="965" y="700" as="targetPoint" />
          </mxGeometry>
        </mxCell>
        <mxCell id="Z4P9S87ZiHfv59hoZmDy-3" value="" style="endArrow=none;html=1;rounded=0;fillColor=#dae8fc;strokeColor=#D79B00;entryX=0.5;entryY=1;entryDx=0;entryDy=0;entryPerimeter=0;exitX=1;exitY=0;exitDx=0;exitDy=0;dashed=1;" edge="1" parent="1" source="Z4P9S87ZiHfv59hoZmDy-19" target="fWA62hPhyV59vMPXqy70-10">
          <mxGeometry width="50" height="50" relative="1" as="geometry">
            <mxPoint x="1095" y="800" as="sourcePoint" />
            <mxPoint x="965" y="700" as="targetPoint" />
          </mxGeometry>
        </mxCell>
        <mxCell id="Z4P9S87ZiHfv59hoZmDy-4" value="" style="endArrow=none;html=1;rounded=0;fillColor=#dae8fc;strokeColor=#D79B00;entryX=0.5;entryY=1;entryDx=0;entryDy=0;entryPerimeter=0;exitX=0;exitY=0;exitDx=0;exitDy=0;dashed=1;" edge="1" parent="1" source="Z4P9S87ZiHfv59hoZmDy-19" target="fWA62hPhyV59vMPXqy70-8">
          <mxGeometry width="50" height="50" relative="1" as="geometry">
            <mxPoint x="1036" y="820" as="sourcePoint" />
            <mxPoint x="845" y="700" as="targetPoint" />
          </mxGeometry>
        </mxCell>
        <mxCell id="Z4P9S87ZiHfv59hoZmDy-5" value="" style="endArrow=none;html=1;rounded=0;fillColor=#dae8fc;strokeColor=#D79B00;entryX=0.5;entryY=1;entryDx=0;entryDy=0;entryPerimeter=0;exitX=1;exitY=0;exitDx=0;exitDy=0;dashed=1;" edge="1" parent="1" source="Z4P9S87ZiHfv59hoZmDy-20" target="fWA62hPhyV59vMPXqy70-10">
          <mxGeometry width="50" height="50" relative="1" as="geometry">
            <mxPoint x="994" y="820" as="sourcePoint" />
            <mxPoint x="965" y="700" as="targetPoint" />
          </mxGeometry>
        </mxCell>
        <mxCell id="Z4P9S87ZiHfv59hoZmDy-6" value="" style="endArrow=none;html=1;rounded=0;fillColor=#dae8fc;strokeColor=#D79B00;exitX=0;exitY=0;exitDx=0;exitDy=0;dashed=1;entryX=0.5;entryY=1;entryDx=0;entryDy=0;entryPerimeter=0;" edge="1" parent="1" source="Z4P9S87ZiHfv59hoZmDy-20" target="fWA62hPhyV59vMPXqy70-8">
          <mxGeometry width="50" height="50" relative="1" as="geometry">
            <mxPoint x="1036" y="820" as="sourcePoint" />
            <mxPoint x="845" y="700" as="targetPoint" />
          </mxGeometry>
        </mxCell>
        <mxCell id="Z4P9S87ZiHfv59hoZmDy-7" value="" style="group;strokeColor=none;" vertex="1" connectable="0" parent="1">
          <mxGeometry x="580" y="800" width="145.75" height="70" as="geometry" />
        </mxCell>
        <mxCell id="Z4P9S87ZiHfv59hoZmDy-8" value="" style="sketch=0;points=[[0.015,0.015,0],[0.985,0.015,0],[0.985,0.985,0],[0.015,0.985,0],[0.25,0,0],[0.5,0,0],[0.75,0,0],[1,0.25,0],[1,0.5,0],[1,0.75,0],[0.75,1,0],[0.5,1,0],[0.25,1,0],[0,0.75,0],[0,0.5,0],[0,0.25,0]];verticalLabelPosition=bottom;html=1;verticalAlign=top;aspect=fixed;align=center;pointerEvents=1;shape=mxgraph.cisco19.server;fillColor=#D79B00;strokeColor=#D79B00;" vertex="1" parent="Z4P9S87ZiHfv59hoZmDy-7">
          <mxGeometry width="38.5" height="70" as="geometry" />
        </mxCell>
        <mxCell id="Z4P9S87ZiHfv59hoZmDy-9" value="" style="sketch=0;points=[[0.015,0.015,0],[0.985,0.015,0],[0.985,0.985,0],[0.015,0.985,0],[0.25,0,0],[0.5,0,0],[0.75,0,0],[1,0.25,0],[1,0.5,0],[1,0.75,0],[0.75,1,0],[0.5,1,0],[0.25,1,0],[0,0.75,0],[0,0.5,0],[0,0.25,0]];verticalLabelPosition=bottom;html=1;verticalAlign=top;aspect=fixed;align=center;pointerEvents=1;shape=mxgraph.cisco19.server;fillColor=#D79B00;strokeColor=#D79B00;" vertex="1" parent="Z4P9S87ZiHfv59hoZmDy-7">
          <mxGeometry x="100.25" width="38.5" height="70" as="geometry" />
        </mxCell>
        <mxCell id="Z4P9S87ZiHfv59hoZmDy-11" value="1" style="text;html=1;strokeColor=none;fillColor=none;align=center;verticalAlign=middle;whiteSpace=wrap;rounded=0;fontColor=#D79B00;fontStyle=1" vertex="1" parent="Z4P9S87ZiHfv59hoZmDy-7">
          <mxGeometry y="20" width="60" height="30" as="geometry" />
        </mxCell>
        <mxCell id="Z4P9S87ZiHfv59hoZmDy-12" value="2" style="text;html=1;strokeColor=none;fillColor=none;align=center;verticalAlign=middle;whiteSpace=wrap;rounded=0;fontColor=#D79B00;fontStyle=1" vertex="1" parent="Z4P9S87ZiHfv59hoZmDy-7">
          <mxGeometry x="100" y="20" width="60" height="30" as="geometry" />
        </mxCell>
        <mxCell id="Z4P9S87ZiHfv59hoZmDy-10" value="" style="sketch=0;points=[[0.015,0.015,0],[0.985,0.015,0],[0.985,0.985,0],[0.015,0.985,0],[0.25,0,0],[0.5,0,0],[0.75,0,0],[1,0.25,0],[1,0.5,0],[1,0.75,0],[0.75,1,0],[0.5,1,0],[0.25,1,0],[0,0.75,0],[0,0.5,0],[0,0.25,0]];verticalLabelPosition=bottom;html=1;verticalAlign=top;aspect=fixed;align=center;pointerEvents=1;shape=mxgraph.cisco19.server;fillColor=#D79B00;strokeColor=#D79B00;" vertex="1" parent="1">
          <mxGeometry x="778.87" y="800" width="38.5" height="70" as="geometry" />
        </mxCell>
        <mxCell id="Z4P9S87ZiHfv59hoZmDy-13" value="3" style="text;html=1;strokeColor=none;fillColor=none;align=center;verticalAlign=middle;whiteSpace=wrap;rounded=0;fontColor=#D79B00;fontStyle=1" vertex="1" parent="1">
          <mxGeometry x="778.87" y="820" width="60" height="30" as="geometry" />
        </mxCell>
        <mxCell id="Z4P9S87ZiHfv59hoZmDy-16" value="po1001" style="ellipse;whiteSpace=wrap;html=1;fillColor=#ffe6cc;strokeColor=#d79b00;" vertex="1" parent="1">
          <mxGeometry x="560" y="770" width="80" height="20" as="geometry" />
        </mxCell>
        <mxCell id="Z4P9S87ZiHfv59hoZmDy-19" value="po1002" style="ellipse;whiteSpace=wrap;html=1;fillColor=#ffe6cc;strokeColor=#d79b00;" vertex="1" parent="1">
          <mxGeometry x="660" y="770" width="80" height="20" as="geometry" />
        </mxCell>
        <mxCell id="Z4P9S87ZiHfv59hoZmDy-20" value="po1003" style="ellipse;whiteSpace=wrap;html=1;fillColor=#ffe6cc;strokeColor=#d79b00;" vertex="1" parent="1">
          <mxGeometry x="758.12" y="770" width="80" height="20" as="geometry" />
        </mxCell>
        <mxCell id="Z4P9S87ZiHfv59hoZmDy-21" value="&lt;div style=&quot;color: rgb(51, 51, 51); background-color: rgb(245, 245, 245); font-family: Consolas, &amp;quot;Courier New&amp;quot;, monospace; font-size: 6px; line-height: 19px;&quot;&gt;00:00:17:00:01:10:01:00:00:00 &lt;/div&gt;" style="text;html=1;align=center;verticalAlign=middle;resizable=0;points=[];autosize=1;strokeColor=none;fillColor=none;fontSize=6;" vertex="1" parent="1">
          <mxGeometry x="540" y="780" width="120" height="30" as="geometry" />
        </mxCell>
        <mxCell id="Z4P9S87ZiHfv59hoZmDy-22" value="&lt;div style=&quot;color: rgb(51, 51, 51); background-color: rgb(245, 245, 245); font-family: Consolas, &amp;quot;Courier New&amp;quot;, monospace; font-size: 6px; line-height: 19px;&quot;&gt;00:00:17:00:01:10:02:00:00:00&lt;/div&gt;" style="text;html=1;align=center;verticalAlign=middle;resizable=0;points=[];autosize=1;strokeColor=none;fillColor=none;fontSize=6;" vertex="1" parent="1">
          <mxGeometry x="640" y="780" width="120" height="30" as="geometry" />
        </mxCell>
        <mxCell id="Z4P9S87ZiHfv59hoZmDy-23" value="&lt;div style=&quot;color: rgb(51, 51, 51); background-color: rgb(245, 245, 245); font-family: Consolas, &amp;quot;Courier New&amp;quot;, monospace; font-size: 6px; line-height: 19px;&quot;&gt;00:00:17:00:01:10:03:00:00:00&lt;/div&gt;" style="text;html=1;align=center;verticalAlign=middle;resizable=0;points=[];autosize=1;strokeColor=none;fillColor=none;fontSize=6;" vertex="1" parent="1">
          <mxGeometry x="740" y="780" width="120" height="30" as="geometry" />
        </mxCell>
        <mxCell id="Z4P9S87ZiHfv59hoZmDy-24" value="" style="shadow=0;dashed=0;html=1;strokeColor=#d79b00;fillColor=#ffe6cc;labelPosition=center;verticalLabelPosition=bottom;verticalAlign=top;align=center;outlineConnect=0;shape=mxgraph.veeam.2d.virtual_machine;" vertex="1" parent="1">
          <mxGeometry x="580" y="900" width="40" height="40" as="geometry" />
        </mxCell>
        <mxCell id="Z4P9S87ZiHfv59hoZmDy-25" value="" style="shadow=0;dashed=0;html=1;strokeColor=#d79b00;fillColor=#ffe6cc;labelPosition=center;verticalLabelPosition=bottom;verticalAlign=top;align=center;outlineConnect=0;shape=mxgraph.veeam.2d.virtual_machine;" vertex="1" parent="1">
          <mxGeometry x="680" y="900" width="40" height="40" as="geometry" />
        </mxCell>
        <mxCell id="Z4P9S87ZiHfv59hoZmDy-26" value="" style="shadow=0;dashed=0;html=1;strokeColor=#d79b00;fillColor=#ffe6cc;labelPosition=center;verticalLabelPosition=bottom;verticalAlign=top;align=center;outlineConnect=0;shape=mxgraph.veeam.2d.virtual_machine;" vertex="1" parent="1">
          <mxGeometry x="780" y="900" width="40" height="40" as="geometry" />
        </mxCell>
        <mxCell id="Z4P9S87ZiHfv59hoZmDy-27" value="" style="endArrow=none;html=1;rounded=0;fillColor=#dae8fc;strokeColor=#D79B00;exitX=0.5;exitY=1;exitDx=0;exitDy=0;exitPerimeter=0;" edge="1" parent="1" source="Z4P9S87ZiHfv59hoZmDy-8" target="Z4P9S87ZiHfv59hoZmDy-24">
          <mxGeometry width="50" height="50" relative="1" as="geometry">
            <mxPoint x="582" y="783" as="sourcePoint" />
            <mxPoint x="565" y="710" as="targetPoint" />
          </mxGeometry>
        </mxCell>
        <mxCell id="Z4P9S87ZiHfv59hoZmDy-29" value="" style="endArrow=none;html=1;rounded=0;fillColor=#dae8fc;strokeColor=#D79B00;exitX=0.5;exitY=1;exitDx=0;exitDy=0;dashed=1;exitPerimeter=0;" edge="1" parent="1" source="Z4P9S87ZiHfv59hoZmDy-9" target="Z4P9S87ZiHfv59hoZmDy-25">
          <mxGeometry width="50" height="50" relative="1" as="geometry">
            <mxPoint x="682" y="783" as="sourcePoint" />
            <mxPoint x="565" y="710" as="targetPoint" />
          </mxGeometry>
        </mxCell>
        <mxCell id="Z4P9S87ZiHfv59hoZmDy-30" value="" style="endArrow=none;html=1;rounded=0;fillColor=#dae8fc;strokeColor=#D79B00;exitX=0.5;exitY=1;exitDx=0;exitDy=0;dashed=1;exitPerimeter=0;" edge="1" parent="1" source="Z4P9S87ZiHfv59hoZmDy-10" target="Z4P9S87ZiHfv59hoZmDy-26">
          <mxGeometry width="50" height="50" relative="1" as="geometry">
            <mxPoint x="710" y="880" as="sourcePoint" />
            <mxPoint x="710" y="910" as="targetPoint" />
          </mxGeometry>
        </mxCell>
        <mxCell id="Z4P9S87ZiHfv59hoZmDy-31" value="&lt;div style=&quot;color: rgb(51, 51, 51); background-color: rgb(245, 245, 245); font-family: Consolas, &amp;quot;Courier New&amp;quot;, monospace; font-size: 6px; line-height: 19px;&quot;&gt;0050.5681.4297&lt;/div&gt;" style="text;html=1;align=center;verticalAlign=middle;resizable=0;points=[];autosize=1;strokeColor=none;fillColor=none;fontSize=6;" vertex="1" parent="1">
          <mxGeometry x="565" y="880" width="70" height="30" as="geometry" />
        </mxCell>
        <mxCell id="Z4P9S87ZiHfv59hoZmDy-32" value="&lt;div style=&quot;color: rgb(51, 51, 51); background-color: rgb(245, 245, 245); font-family: Consolas, &amp;quot;Courier New&amp;quot;, monospace; font-size: 6px; line-height: 19px;&quot;&gt;0050.5681.2a49&lt;/div&gt;" style="text;html=1;align=center;verticalAlign=middle;resizable=0;points=[];autosize=1;strokeColor=none;fillColor=none;fontSize=6;" vertex="1" parent="1">
          <mxGeometry x="665" y="880" width="70" height="30" as="geometry" />
        </mxCell>
        <mxCell id="AcBpzvZY_kURqvmKNj_P-15" value="" style="endArrow=none;html=1;rounded=0;fillColor=#d5e8d4;strokeColor=#82b366;entryX=0.5;entryY=1;entryDx=0;entryDy=0;entryPerimeter=0;exitX=0;exitY=0;exitDx=0;exitDy=0;" edge="1" parent="1" source="AcBpzvZY_kURqvmKNj_P-28">
          <mxGeometry width="50" height="50" relative="1" as="geometry">
            <mxPoint x="1400" y="670" as="sourcePoint" />
            <mxPoint x="1075" y="700" as="targetPoint" />
          </mxGeometry>
        </mxCell>
        <mxCell id="AcBpzvZY_kURqvmKNj_P-16" value="" style="endArrow=none;html=1;rounded=0;fillColor=#d5e8d4;strokeColor=#82b366;entryX=0.5;entryY=1;entryDx=0;entryDy=0;entryPerimeter=0;exitX=1;exitY=0;exitDx=0;exitDy=0;" edge="1" parent="1" source="AcBpzvZY_kURqvmKNj_P-28">
          <mxGeometry width="50" height="50" relative="1" as="geometry">
            <mxPoint x="1470" y="820" as="sourcePoint" />
            <mxPoint x="1345" y="700" as="targetPoint" />
          </mxGeometry>
        </mxCell>
        <mxCell id="AcBpzvZY_kURqvmKNj_P-17" value="" style="endArrow=none;html=1;rounded=0;fillColor=#d5e8d4;strokeColor=#82b366;entryX=0.5;entryY=1;entryDx=0;entryDy=0;entryPerimeter=0;exitX=1;exitY=0;exitDx=0;exitDy=0;dashed=1;" edge="1" parent="1" source="AcBpzvZY_kURqvmKNj_P-29">
          <mxGeometry width="50" height="50" relative="1" as="geometry">
            <mxPoint x="1615" y="800" as="sourcePoint" />
            <mxPoint x="1345" y="700" as="targetPoint" />
          </mxGeometry>
        </mxCell>
        <mxCell id="AcBpzvZY_kURqvmKNj_P-18" value="" style="endArrow=none;html=1;rounded=0;fillColor=#d5e8d4;strokeColor=#82b366;entryX=0.5;entryY=1;entryDx=0;entryDy=0;entryPerimeter=0;exitX=0;exitY=0;exitDx=0;exitDy=0;dashed=1;" edge="1" parent="1" source="AcBpzvZY_kURqvmKNj_P-29">
          <mxGeometry width="50" height="50" relative="1" as="geometry">
            <mxPoint x="1556" y="820" as="sourcePoint" />
            <mxPoint x="1075" y="700" as="targetPoint" />
          </mxGeometry>
        </mxCell>
        <mxCell id="AcBpzvZY_kURqvmKNj_P-19" value="" style="endArrow=none;html=1;rounded=0;fillColor=#d5e8d4;strokeColor=#82b366;entryX=0.5;entryY=1;entryDx=0;entryDy=0;entryPerimeter=0;exitX=1;exitY=0;exitDx=0;exitDy=0;dashed=1;" edge="1" parent="1" source="AcBpzvZY_kURqvmKNj_P-30">
          <mxGeometry width="50" height="50" relative="1" as="geometry">
            <mxPoint x="1514" y="820" as="sourcePoint" />
            <mxPoint x="1345" y="700" as="targetPoint" />
          </mxGeometry>
        </mxCell>
        <mxCell id="AcBpzvZY_kURqvmKNj_P-20" value="" style="endArrow=none;html=1;rounded=0;fillColor=#d5e8d4;strokeColor=#82b366;exitX=0;exitY=0;exitDx=0;exitDy=0;dashed=1;entryX=0.5;entryY=1;entryDx=0;entryDy=0;entryPerimeter=0;" edge="1" parent="1" source="AcBpzvZY_kURqvmKNj_P-30">
          <mxGeometry width="50" height="50" relative="1" as="geometry">
            <mxPoint x="1556" y="820" as="sourcePoint" />
            <mxPoint x="1075" y="700" as="targetPoint" />
          </mxGeometry>
        </mxCell>
        <mxCell id="AcBpzvZY_kURqvmKNj_P-21" value="" style="group;strokeColor=none;" vertex="1" connectable="0" parent="1">
          <mxGeometry x="1100" y="800" width="345.75" height="70" as="geometry" />
        </mxCell>
        <mxCell id="2p0HiIwCHqEdSw2I_SiP-1" value="" style="sketch=0;points=[[0.015,0.015,0],[0.985,0.015,0],[0.985,0.985,0],[0.015,0.985,0],[0.25,0,0],[0.5,0,0],[0.75,0,0],[1,0.25,0],[1,0.5,0],[1,0.75,0],[0.75,1,0],[0.5,1,0],[0.25,1,0],[0,0.75,0],[0,0.5,0],[0,0.25,0]];verticalLabelPosition=bottom;html=1;verticalAlign=top;aspect=fixed;align=center;pointerEvents=1;shape=mxgraph.cisco19.server;fillColor=#82B366;strokeColor=none;" vertex="1" parent="AcBpzvZY_kURqvmKNj_P-21">
          <mxGeometry width="38.5" height="70" as="geometry" />
        </mxCell>
        <mxCell id="2p0HiIwCHqEdSw2I_SiP-3" value="" style="group;strokeColor=none;" vertex="1" connectable="0" parent="AcBpzvZY_kURqvmKNj_P-21">
          <mxGeometry x="100" width="245.75" height="70" as="geometry" />
        </mxCell>
        <mxCell id="2p0HiIwCHqEdSw2I_SiP-4" value="" style="sketch=0;points=[[0.015,0.015,0],[0.985,0.015,0],[0.985,0.985,0],[0.015,0.985,0],[0.25,0,0],[0.5,0,0],[0.75,0,0],[1,0.25,0],[1,0.5,0],[1,0.75,0],[0.75,1,0],[0.5,1,0],[0.25,1,0],[0,0.75,0],[0,0.5,0],[0,0.25,0]];verticalLabelPosition=bottom;html=1;verticalAlign=top;aspect=fixed;align=center;pointerEvents=1;shape=mxgraph.cisco19.server;fillColor=#82B366;strokeColor=none;" vertex="1" parent="2p0HiIwCHqEdSw2I_SiP-3">
          <mxGeometry width="38.5" height="70" as="geometry" />
        </mxCell>
        <mxCell id="2p0HiIwCHqEdSw2I_SiP-5" value="" style="group;strokeColor=none;" vertex="1" connectable="0" parent="2p0HiIwCHqEdSw2I_SiP-3">
          <mxGeometry x="100" width="145.75" height="70" as="geometry" />
        </mxCell>
        <mxCell id="2p0HiIwCHqEdSw2I_SiP-6" value="" style="sketch=0;points=[[0.015,0.015,0],[0.985,0.015,0],[0.985,0.985,0],[0.015,0.985,0],[0.25,0,0],[0.5,0,0],[0.75,0,0],[1,0.25,0],[1,0.5,0],[1,0.75,0],[0.75,1,0],[0.5,1,0],[0.25,1,0],[0,0.75,0],[0,0.5,0],[0,0.25,0]];verticalLabelPosition=bottom;html=1;verticalAlign=top;aspect=fixed;align=center;pointerEvents=1;shape=mxgraph.cisco19.server;fillColor=#82B366;strokeColor=none;" vertex="1" parent="2p0HiIwCHqEdSw2I_SiP-5">
          <mxGeometry width="38.5" height="70" as="geometry" />
        </mxCell>
        <mxCell id="5-RLoaOG6VaEafFaHyHn-3" value="3" style="text;html=1;strokeColor=none;fillColor=none;align=center;verticalAlign=middle;whiteSpace=wrap;rounded=0;fontColor=#82B366;fontStyle=1" vertex="1" parent="2p0HiIwCHqEdSw2I_SiP-5">
          <mxGeometry y="20" width="60" height="30" as="geometry" />
        </mxCell>
        <mxCell id="5-RLoaOG6VaEafFaHyHn-2" value="2" style="text;html=1;strokeColor=none;fillColor=none;align=center;verticalAlign=middle;whiteSpace=wrap;rounded=0;fontColor=#82B366;fontStyle=1" vertex="1" parent="2p0HiIwCHqEdSw2I_SiP-3">
          <mxGeometry y="20" width="60" height="30" as="geometry" />
        </mxCell>
        <mxCell id="5-RLoaOG6VaEafFaHyHn-1" value="1" style="text;html=1;strokeColor=none;fillColor=none;align=center;verticalAlign=middle;whiteSpace=wrap;rounded=0;fontColor=#82B366;fontStyle=1" vertex="1" parent="AcBpzvZY_kURqvmKNj_P-21">
          <mxGeometry y="20" width="60" height="30" as="geometry" />
        </mxCell>
        <mxCell id="AcBpzvZY_kURqvmKNj_P-28" value="po1001" style="ellipse;whiteSpace=wrap;html=1;fillColor=#d5e8d4;strokeColor=#82b366;" vertex="1" parent="1">
          <mxGeometry x="1080" y="770" width="80" height="20" as="geometry" />
        </mxCell>
        <mxCell id="AcBpzvZY_kURqvmKNj_P-29" value="po1002" style="ellipse;whiteSpace=wrap;html=1;fillColor=#d5e8d4;strokeColor=#82b366;" vertex="1" parent="1">
          <mxGeometry x="1180" y="770" width="80" height="20" as="geometry" />
        </mxCell>
        <mxCell id="AcBpzvZY_kURqvmKNj_P-30" value="po1003" style="ellipse;whiteSpace=wrap;html=1;fillColor=#d5e8d4;strokeColor=#82b366;" vertex="1" parent="1">
          <mxGeometry x="1278.12" y="770" width="80" height="20" as="geometry" />
        </mxCell>
        <mxCell id="AcBpzvZY_kURqvmKNj_P-31" value="&lt;div style=&quot;color: rgb(51, 51, 51); background-color: rgb(245, 245, 245); font-family: Consolas, &amp;quot;Courier New&amp;quot;, monospace; font-size: 6px; line-height: 19px;&quot;&gt;00:00:17:00:02:10:01:00:00:00 &lt;/div&gt;" style="text;html=1;align=center;verticalAlign=middle;resizable=0;points=[];autosize=1;strokeColor=none;fillColor=none;fontSize=6;" vertex="1" parent="1">
          <mxGeometry x="1060" y="780" width="120" height="30" as="geometry" />
        </mxCell>
        <mxCell id="AcBpzvZY_kURqvmKNj_P-32" value="&lt;div style=&quot;color: rgb(51, 51, 51); background-color: rgb(245, 245, 245); font-family: Consolas, &amp;quot;Courier New&amp;quot;, monospace; font-size: 6px; line-height: 19px;&quot;&gt;00:00:17:00:02:10:02:00:00:00&lt;/div&gt;" style="text;html=1;align=center;verticalAlign=middle;resizable=0;points=[];autosize=1;strokeColor=none;fillColor=none;fontSize=6;" vertex="1" parent="1">
          <mxGeometry x="1160" y="780" width="120" height="30" as="geometry" />
        </mxCell>
        <mxCell id="AcBpzvZY_kURqvmKNj_P-33" value="&lt;div style=&quot;color: rgb(51, 51, 51); background-color: rgb(245, 245, 245); font-family: Consolas, &amp;quot;Courier New&amp;quot;, monospace; font-size: 6px; line-height: 19px;&quot;&gt;00:00:17:00:02:10:03:00:00:00&lt;/div&gt;" style="text;html=1;align=center;verticalAlign=middle;resizable=0;points=[];autosize=1;strokeColor=none;fillColor=none;fontSize=6;" vertex="1" parent="1">
          <mxGeometry x="1260" y="780" width="120" height="30" as="geometry" />
        </mxCell>
        <mxCell id="AcBpzvZY_kURqvmKNj_P-34" value="" style="shadow=0;dashed=0;html=1;strokeColor=#82b366;fillColor=#d5e8d4;labelPosition=center;verticalLabelPosition=bottom;verticalAlign=top;align=center;outlineConnect=0;shape=mxgraph.veeam.2d.virtual_machine;" vertex="1" parent="1">
          <mxGeometry x="1100" y="900" width="40" height="40" as="geometry" />
        </mxCell>
        <mxCell id="AcBpzvZY_kURqvmKNj_P-35" value="" style="shadow=0;dashed=0;html=1;strokeColor=#82b366;fillColor=#d5e8d4;labelPosition=center;verticalLabelPosition=bottom;verticalAlign=top;align=center;outlineConnect=0;shape=mxgraph.veeam.2d.virtual_machine;" vertex="1" parent="1">
          <mxGeometry x="1200" y="900" width="40" height="40" as="geometry" />
        </mxCell>
        <mxCell id="AcBpzvZY_kURqvmKNj_P-36" value="" style="shadow=0;dashed=0;html=1;strokeColor=#82b366;fillColor=#d5e8d4;labelPosition=center;verticalLabelPosition=bottom;verticalAlign=top;align=center;outlineConnect=0;shape=mxgraph.veeam.2d.virtual_machine;" vertex="1" parent="1">
          <mxGeometry x="1300" y="900" width="40" height="40" as="geometry" />
        </mxCell>
        <mxCell id="AcBpzvZY_kURqvmKNj_P-37" value="" style="endArrow=none;html=1;rounded=0;fillColor=#d5e8d4;strokeColor=#82b366;exitX=0.5;exitY=1;exitDx=0;exitDy=0;exitPerimeter=0;" edge="1" parent="1" target="AcBpzvZY_kURqvmKNj_P-34">
          <mxGeometry width="50" height="50" relative="1" as="geometry">
            <mxPoint x="1119.25" y="870" as="sourcePoint" />
            <mxPoint x="1085" y="710" as="targetPoint" />
          </mxGeometry>
        </mxCell>
        <mxCell id="AcBpzvZY_kURqvmKNj_P-38" value="" style="endArrow=none;html=1;rounded=0;fillColor=#d5e8d4;strokeColor=#82b366;exitX=0.5;exitY=1;exitDx=0;exitDy=0;dashed=1;exitPerimeter=0;" edge="1" parent="1" target="AcBpzvZY_kURqvmKNj_P-35">
          <mxGeometry width="50" height="50" relative="1" as="geometry">
            <mxPoint x="1219.5" y="870" as="sourcePoint" />
            <mxPoint x="1085" y="710" as="targetPoint" />
          </mxGeometry>
        </mxCell>
        <mxCell id="AcBpzvZY_kURqvmKNj_P-39" value="" style="endArrow=none;html=1;rounded=0;fillColor=#d5e8d4;strokeColor=#82b366;exitX=0.5;exitY=1;exitDx=0;exitDy=0;dashed=1;exitPerimeter=0;" edge="1" parent="1" target="AcBpzvZY_kURqvmKNj_P-36">
          <mxGeometry width="50" height="50" relative="1" as="geometry">
            <mxPoint x="1318.12" y="870" as="sourcePoint" />
            <mxPoint x="1230" y="910" as="targetPoint" />
          </mxGeometry>
        </mxCell>
        <mxCell id="AcBpzvZY_kURqvmKNj_P-40" value="&lt;div style=&quot;color: rgb(51, 51, 51); background-color: rgb(245, 245, 245); font-family: Consolas, &amp;quot;Courier New&amp;quot;, monospace; font-size: 6px; line-height: 19px;&quot;&gt;&lt;div style=&quot;font-size: 6px; line-height: 19px;&quot;&gt;0050.5681.c516&lt;/div&gt;&lt;/div&gt;" style="text;html=1;align=center;verticalAlign=middle;resizable=0;points=[];autosize=1;strokeColor=none;fillColor=none;fontSize=6;" vertex="1" parent="1">
          <mxGeometry x="1085" y="880" width="70" height="30" as="geometry" />
        </mxCell>
        <mxCell id="AcBpzvZY_kURqvmKNj_P-41" value="&lt;div style=&quot;color: rgb(51, 51, 51); background-color: rgb(245, 245, 245); font-family: Consolas, &amp;quot;Courier New&amp;quot;, monospace; font-size: 6px; line-height: 19px;&quot;&gt;&lt;div style=&quot;font-size: 6px; line-height: 19px;&quot;&gt;0050.5681.df13&lt;/div&gt;&lt;/div&gt;" style="text;html=1;align=center;verticalAlign=middle;resizable=0;points=[];autosize=1;strokeColor=none;fillColor=none;fontSize=6;" vertex="1" parent="1">
          <mxGeometry x="1185" y="880" width="70" height="30" as="geometry" />
        </mxCell>
      </root>
    </mxGraphModel>
  </diagram>
  <diagram name="L3VNI" id="dCq4Xm2FGiYtJhoyoPXu">
    <mxGraphModel dx="1059" dy="692" grid="1" gridSize="10" guides="1" tooltips="1" connect="1" arrows="1" fold="1" page="1" pageScale="1" pageWidth="827" pageHeight="1169" math="0" shadow="0">
      <root>
        <mxCell id="_Pwls5BO25hZNGwztqYF-0" />
        <mxCell id="_Pwls5BO25hZNGwztqYF-1" parent="_Pwls5BO25hZNGwztqYF-0" />
        <mxCell id="_Pwls5BO25hZNGwztqYF-2" value="otus-spine-sw01" style="sketch=0;points=[[0.015,0.015,0],[0.985,0.015,0],[0.985,0.985,0],[0.015,0.985,0],[0.25,0,0],[0.5,0,0],[0.75,0,0],[1,0.25,0],[1,0.5,0],[1,0.75,0],[0.75,1,0],[0.5,1,0],[0.25,1,0],[0,0.75,0],[0,0.5,0],[0,0.25,0]];verticalLabelPosition=middle;html=1;verticalAlign=middle;aspect=fixed;align=right;pointerEvents=1;shape=mxgraph.cisco19.rect;prIcon=l2_switch;fillColor=#dae8fc;strokeColor=#6c8ebf;labelPosition=left;" vertex="1" parent="_Pwls5BO25hZNGwztqYF-1">
          <mxGeometry x="770" y="340" width="50" height="50" as="geometry" />
        </mxCell>
        <mxCell id="_Pwls5BO25hZNGwztqYF-3" value="otus-leaf-sw01" style="sketch=0;points=[[0.015,0.015,0],[0.985,0.015,0],[0.985,0.985,0],[0.015,0.985,0],[0.25,0,0],[0.5,0,0],[0.75,0,0],[1,0.25,0],[1,0.5,0],[1,0.75,0],[0.75,1,0],[0.5,1,0],[0.25,1,0],[0,0.75,0],[0,0.5,0],[0,0.25,0]];verticalLabelPosition=middle;html=1;verticalAlign=middle;aspect=fixed;align=right;pointerEvents=1;shape=mxgraph.cisco19.rect;prIcon=l2_switch;fillColor=#fff2cc;strokeColor=#d6b656;labelPosition=left;" vertex="1" parent="_Pwls5BO25hZNGwztqYF-1">
          <mxGeometry x="530" y="650" width="50" height="50" as="geometry" />
        </mxCell>
        <mxCell id="_Pwls5BO25hZNGwztqYF-4" value="otus-spine-sw02" style="sketch=0;points=[[0.015,0.015,0],[0.985,0.015,0],[0.985,0.985,0],[0.015,0.985,0],[0.25,0,0],[0.5,0,0],[0.75,0,0],[1,0.25,0],[1,0.5,0],[1,0.75,0],[0.75,1,0],[0.5,1,0],[0.25,1,0],[0,0.75,0],[0,0.5,0],[0,0.25,0]];verticalLabelPosition=middle;html=1;verticalAlign=middle;aspect=fixed;align=left;pointerEvents=1;shape=mxgraph.cisco19.rect;prIcon=l2_switch;fillColor=#dae8fc;strokeColor=#6c8ebf;labelPosition=right;" vertex="1" parent="_Pwls5BO25hZNGwztqYF-1">
          <mxGeometry x="1020" y="340" width="50" height="50" as="geometry" />
        </mxCell>
        <mxCell id="_Pwls5BO25hZNGwztqYF-5" value="otus-leaf-sw02" style="sketch=0;points=[[0.015,0.015,0],[0.985,0.015,0],[0.985,0.985,0],[0.015,0.985,0],[0.25,0,0],[0.5,0,0],[0.75,0,0],[1,0.25,0],[1,0.5,0],[1,0.75,0],[0.75,1,0],[0.5,1,0],[0.25,1,0],[0,0.75,0],[0,0.5,0],[0,0.25,0]];verticalLabelPosition=middle;html=1;verticalAlign=middle;aspect=fixed;align=right;pointerEvents=1;shape=mxgraph.cisco19.rect;prIcon=l2_switch;fillColor=#fff2cc;strokeColor=#d6b656;labelPosition=left;" vertex="1" parent="_Pwls5BO25hZNGwztqYF-1">
          <mxGeometry x="800" y="650" width="50" height="50" as="geometry" />
        </mxCell>
        <mxCell id="_Pwls5BO25hZNGwztqYF-6" value="otus-leaf-sw03" style="sketch=0;points=[[0.015,0.015,0],[0.985,0.015,0],[0.985,0.985,0],[0.015,0.985,0],[0.25,0,0],[0.5,0,0],[0.75,0,0],[1,0.25,0],[1,0.5,0],[1,0.75,0],[0.75,1,0],[0.5,1,0],[0.25,1,0],[0,0.75,0],[0,0.5,0],[0,0.25,0]];verticalLabelPosition=middle;html=1;verticalAlign=middle;aspect=fixed;align=right;pointerEvents=1;shape=mxgraph.cisco19.rect;prIcon=l2_switch;fillColor=#d5e8d4;strokeColor=#82b366;labelPosition=left;" vertex="1" parent="_Pwls5BO25hZNGwztqYF-1">
          <mxGeometry x="1050" y="650" width="50" height="50" as="geometry" />
        </mxCell>
        <mxCell id="_Pwls5BO25hZNGwztqYF-7" value="otus-leaf-sw04" style="sketch=0;points=[[0.015,0.015,0],[0.985,0.015,0],[0.985,0.985,0],[0.015,0.985,0],[0.25,0,0],[0.5,0,0],[0.75,0,0],[1,0.25,0],[1,0.5,0],[1,0.75,0],[0.75,1,0],[0.5,1,0],[0.25,1,0],[0,0.75,0],[0,0.5,0],[0,0.25,0]];verticalLabelPosition=middle;html=1;verticalAlign=middle;aspect=fixed;align=right;pointerEvents=1;shape=mxgraph.cisco19.rect;prIcon=l2_switch;fillColor=#d5e8d4;strokeColor=#82b366;labelPosition=left;" vertex="1" parent="_Pwls5BO25hZNGwztqYF-1">
          <mxGeometry x="1320" y="650" width="50" height="50" as="geometry" />
        </mxCell>
        <mxCell id="_Pwls5BO25hZNGwztqYF-8" value="" style="endArrow=none;html=1;rounded=0;fillColor=#dae8fc;strokeColor=#6c8ebf;entryX=0.5;entryY=1;entryDx=0;entryDy=0;entryPerimeter=0;exitX=0.5;exitY=0;exitDx=0;exitDy=0;exitPerimeter=0;" edge="1" parent="_Pwls5BO25hZNGwztqYF-1" source="_Pwls5BO25hZNGwztqYF-3" target="_Pwls5BO25hZNGwztqYF-2">
          <mxGeometry width="50" height="50" relative="1" as="geometry">
            <mxPoint x="499.9999999999998" y="630" as="sourcePoint" />
            <mxPoint x="1010" y="430" as="targetPoint" />
          </mxGeometry>
        </mxCell>
        <mxCell id="_Pwls5BO25hZNGwztqYF-9" value="" style="endArrow=none;html=1;rounded=0;fillColor=#dae8fc;strokeColor=#6c8ebf;entryX=0.5;entryY=1;entryDx=0;entryDy=0;entryPerimeter=0;exitX=0.5;exitY=0;exitDx=0;exitDy=0;exitPerimeter=0;" edge="1" parent="_Pwls5BO25hZNGwztqYF-1" source="_Pwls5BO25hZNGwztqYF-5" target="_Pwls5BO25hZNGwztqYF-2">
          <mxGeometry width="50" height="50" relative="1" as="geometry">
            <mxPoint x="769.9999999999998" y="630" as="sourcePoint" />
            <mxPoint x="695" y="400" as="targetPoint" />
          </mxGeometry>
        </mxCell>
        <mxCell id="_Pwls5BO25hZNGwztqYF-10" value="" style="endArrow=none;html=1;rounded=0;fillColor=#dae8fc;strokeColor=#6c8ebf;entryX=0.5;entryY=1;entryDx=0;entryDy=0;entryPerimeter=0;exitX=0.5;exitY=0;exitDx=0;exitDy=0;exitPerimeter=0;" edge="1" parent="_Pwls5BO25hZNGwztqYF-1" source="_Pwls5BO25hZNGwztqYF-6" target="_Pwls5BO25hZNGwztqYF-2">
          <mxGeometry width="50" height="50" relative="1" as="geometry">
            <mxPoint x="1020" y="630" as="sourcePoint" />
            <mxPoint x="695" y="400" as="targetPoint" />
          </mxGeometry>
        </mxCell>
        <mxCell id="_Pwls5BO25hZNGwztqYF-11" value="" style="endArrow=none;html=1;rounded=0;fillColor=#dae8fc;strokeColor=#6c8ebf;entryX=0.5;entryY=1;entryDx=0;entryDy=0;entryPerimeter=0;exitX=0.5;exitY=0;exitDx=0;exitDy=0;exitPerimeter=0;" edge="1" parent="_Pwls5BO25hZNGwztqYF-1" source="_Pwls5BO25hZNGwztqYF-7" target="_Pwls5BO25hZNGwztqYF-2">
          <mxGeometry width="50" height="50" relative="1" as="geometry">
            <mxPoint x="1290" y="630" as="sourcePoint" />
            <mxPoint x="695" y="400" as="targetPoint" />
          </mxGeometry>
        </mxCell>
        <mxCell id="_Pwls5BO25hZNGwztqYF-12" value="" style="endArrow=none;html=1;rounded=0;fillColor=#dae8fc;strokeColor=#6c8ebf;entryX=0.5;entryY=1;entryDx=0;entryDy=0;entryPerimeter=0;exitX=0.5;exitY=0;exitDx=0;exitDy=0;exitPerimeter=0;" edge="1" parent="_Pwls5BO25hZNGwztqYF-1" source="_Pwls5BO25hZNGwztqYF-7" target="_Pwls5BO25hZNGwztqYF-4">
          <mxGeometry width="50" height="50" relative="1" as="geometry">
            <mxPoint x="1290" y="630" as="sourcePoint" />
            <mxPoint x="775" y="400" as="targetPoint" />
          </mxGeometry>
        </mxCell>
        <mxCell id="_Pwls5BO25hZNGwztqYF-13" value="" style="endArrow=none;html=1;rounded=0;fillColor=#dae8fc;strokeColor=#6c8ebf;entryX=0.5;entryY=1;entryDx=0;entryDy=0;entryPerimeter=0;exitX=0.5;exitY=0;exitDx=0;exitDy=0;exitPerimeter=0;" edge="1" parent="_Pwls5BO25hZNGwztqYF-1" source="_Pwls5BO25hZNGwztqYF-3" target="_Pwls5BO25hZNGwztqYF-4">
          <mxGeometry width="50" height="50" relative="1" as="geometry">
            <mxPoint x="499.9999999999998" y="630" as="sourcePoint" />
            <mxPoint x="915" y="400" as="targetPoint" />
          </mxGeometry>
        </mxCell>
        <mxCell id="_Pwls5BO25hZNGwztqYF-14" value="" style="endArrow=none;html=1;rounded=0;fillColor=#dae8fc;strokeColor=#6c8ebf;entryX=0.5;entryY=1;entryDx=0;entryDy=0;entryPerimeter=0;exitX=0.5;exitY=0;exitDx=0;exitDy=0;exitPerimeter=0;" edge="1" parent="_Pwls5BO25hZNGwztqYF-1" source="_Pwls5BO25hZNGwztqYF-5" target="_Pwls5BO25hZNGwztqYF-4">
          <mxGeometry width="50" height="50" relative="1" as="geometry">
            <mxPoint x="769.9999999999998" y="630" as="sourcePoint" />
            <mxPoint x="915" y="400" as="targetPoint" />
          </mxGeometry>
        </mxCell>
        <mxCell id="_Pwls5BO25hZNGwztqYF-15" value="" style="endArrow=none;html=1;rounded=0;fillColor=#dae8fc;strokeColor=#6c8ebf;entryX=0.5;entryY=1;entryDx=0;entryDy=0;entryPerimeter=0;exitX=0.5;exitY=0;exitDx=0;exitDy=0;exitPerimeter=0;" edge="1" parent="_Pwls5BO25hZNGwztqYF-1" source="_Pwls5BO25hZNGwztqYF-6" target="_Pwls5BO25hZNGwztqYF-4">
          <mxGeometry width="50" height="50" relative="1" as="geometry">
            <mxPoint x="1020" y="630" as="sourcePoint" />
            <mxPoint x="915" y="400" as="targetPoint" />
          </mxGeometry>
        </mxCell>
        <mxCell id="_Pwls5BO25hZNGwztqYF-16" value="Площадка OTUS&amp;nbsp;XVII" style="text;html=1;strokeColor=none;fillColor=none;align=center;verticalAlign=middle;whiteSpace=wrap;rounded=0;fontSize=18;fontStyle=1;fontFamily=Verdana;" vertex="1" parent="_Pwls5BO25hZNGwztqYF-1">
          <mxGeometry x="778.87" y="270" width="314" height="30" as="geometry" />
        </mxCell>
        <mxCell id="_Pwls5BO25hZNGwztqYF-17" value="vni&amp;nbsp;0170200&amp;nbsp;otus-l3-connection-0&lt;br&gt;&lt;div style=&quot;color: rgb(51, 51, 51); background-color: rgb(245, 245, 245); font-family: Consolas, &amp;quot;Courier New&amp;quot;, monospace; font-size: 14px; line-height: 19px;&quot;&gt;10.17.2.0/24&lt;/div&gt;" style="rounded=1;whiteSpace=wrap;html=1;fillColor=#b0e3e6;strokeColor=#0e8088;" vertex="1" parent="_Pwls5BO25hZNGwztqYF-1">
          <mxGeometry x="530" y="600" width="320" height="40" as="geometry" />
        </mxCell>
        <mxCell id="_Pwls5BO25hZNGwztqYF-18" value="vni&amp;nbsp;0170201&amp;nbsp;otus-l2-connection-1&lt;br&gt;&lt;div style=&quot;color: rgb(51, 51, 51); background-color: rgb(245, 245, 245); font-family: Consolas, &amp;quot;Courier New&amp;quot;, monospace; font-size: 14px; line-height: 19px;&quot;&gt;10.17.3.0/24&lt;/div&gt;" style="rounded=1;whiteSpace=wrap;html=1;fillColor=#fad9d5;strokeColor=#ae4132;" vertex="1" parent="_Pwls5BO25hZNGwztqYF-1">
          <mxGeometry x="1050" y="600" width="320" height="40" as="geometry" />
        </mxCell>
        <mxCell id="_Pwls5BO25hZNGwztqYF-19" value="" style="endArrow=none;html=1;rounded=0;fillColor=#dae8fc;strokeColor=#D79B00;entryX=0.5;entryY=1;entryDx=0;entryDy=0;entryPerimeter=0;exitX=0;exitY=0;exitDx=0;exitDy=0;" edge="1" parent="_Pwls5BO25hZNGwztqYF-1" source="_Pwls5BO25hZNGwztqYF-32" target="_Pwls5BO25hZNGwztqYF-3">
          <mxGeometry width="50" height="50" relative="1" as="geometry">
            <mxPoint x="880" y="670" as="sourcePoint" />
            <mxPoint x="845" y="700" as="targetPoint" />
          </mxGeometry>
        </mxCell>
        <mxCell id="_Pwls5BO25hZNGwztqYF-20" value="" style="endArrow=none;html=1;rounded=0;fillColor=#ffe6cc;strokeColor=#D79B00;entryX=0.5;entryY=1;entryDx=0;entryDy=0;entryPerimeter=0;exitX=1;exitY=0;exitDx=0;exitDy=0;" edge="1" parent="_Pwls5BO25hZNGwztqYF-1" source="_Pwls5BO25hZNGwztqYF-32" target="_Pwls5BO25hZNGwztqYF-5">
          <mxGeometry width="50" height="50" relative="1" as="geometry">
            <mxPoint x="950" y="820" as="sourcePoint" />
            <mxPoint x="965" y="700" as="targetPoint" />
          </mxGeometry>
        </mxCell>
        <mxCell id="_Pwls5BO25hZNGwztqYF-21" value="" style="endArrow=none;html=1;rounded=0;fillColor=#dae8fc;strokeColor=#D79B00;entryX=0.5;entryY=1;entryDx=0;entryDy=0;entryPerimeter=0;exitX=1;exitY=0;exitDx=0;exitDy=0;dashed=1;" edge="1" parent="_Pwls5BO25hZNGwztqYF-1" source="_Pwls5BO25hZNGwztqYF-33" target="_Pwls5BO25hZNGwztqYF-5">
          <mxGeometry width="50" height="50" relative="1" as="geometry">
            <mxPoint x="1095" y="800" as="sourcePoint" />
            <mxPoint x="965" y="700" as="targetPoint" />
          </mxGeometry>
        </mxCell>
        <mxCell id="_Pwls5BO25hZNGwztqYF-22" value="" style="endArrow=none;html=1;rounded=0;fillColor=#dae8fc;strokeColor=#D79B00;entryX=0.5;entryY=1;entryDx=0;entryDy=0;entryPerimeter=0;exitX=0;exitY=0;exitDx=0;exitDy=0;dashed=1;" edge="1" parent="_Pwls5BO25hZNGwztqYF-1" source="_Pwls5BO25hZNGwztqYF-33" target="_Pwls5BO25hZNGwztqYF-3">
          <mxGeometry width="50" height="50" relative="1" as="geometry">
            <mxPoint x="1036" y="820" as="sourcePoint" />
            <mxPoint x="845" y="700" as="targetPoint" />
          </mxGeometry>
        </mxCell>
        <mxCell id="_Pwls5BO25hZNGwztqYF-23" value="" style="endArrow=none;html=1;rounded=0;fillColor=#dae8fc;strokeColor=#D79B00;entryX=0.5;entryY=1;entryDx=0;entryDy=0;entryPerimeter=0;exitX=1;exitY=0;exitDx=0;exitDy=0;dashed=1;" edge="1" parent="_Pwls5BO25hZNGwztqYF-1" source="_Pwls5BO25hZNGwztqYF-34" target="_Pwls5BO25hZNGwztqYF-5">
          <mxGeometry width="50" height="50" relative="1" as="geometry">
            <mxPoint x="994" y="820" as="sourcePoint" />
            <mxPoint x="965" y="700" as="targetPoint" />
          </mxGeometry>
        </mxCell>
        <mxCell id="_Pwls5BO25hZNGwztqYF-24" value="" style="endArrow=none;html=1;rounded=0;fillColor=#dae8fc;strokeColor=#D79B00;exitX=0;exitY=0;exitDx=0;exitDy=0;dashed=1;entryX=0.5;entryY=1;entryDx=0;entryDy=0;entryPerimeter=0;" edge="1" parent="_Pwls5BO25hZNGwztqYF-1" source="_Pwls5BO25hZNGwztqYF-34" target="_Pwls5BO25hZNGwztqYF-3">
          <mxGeometry width="50" height="50" relative="1" as="geometry">
            <mxPoint x="1036" y="820" as="sourcePoint" />
            <mxPoint x="845" y="700" as="targetPoint" />
          </mxGeometry>
        </mxCell>
        <mxCell id="_Pwls5BO25hZNGwztqYF-25" value="" style="group;strokeColor=none;" vertex="1" connectable="0" parent="_Pwls5BO25hZNGwztqYF-1">
          <mxGeometry x="580" y="800" width="145.75" height="70" as="geometry" />
        </mxCell>
        <mxCell id="_Pwls5BO25hZNGwztqYF-26" value="" style="sketch=0;points=[[0.015,0.015,0],[0.985,0.015,0],[0.985,0.985,0],[0.015,0.985,0],[0.25,0,0],[0.5,0,0],[0.75,0,0],[1,0.25,0],[1,0.5,0],[1,0.75,0],[0.75,1,0],[0.5,1,0],[0.25,1,0],[0,0.75,0],[0,0.5,0],[0,0.25,0]];verticalLabelPosition=bottom;html=1;verticalAlign=top;aspect=fixed;align=center;pointerEvents=1;shape=mxgraph.cisco19.server;fillColor=#D79B00;strokeColor=#D79B00;" vertex="1" parent="_Pwls5BO25hZNGwztqYF-25">
          <mxGeometry width="38.5" height="70" as="geometry" />
        </mxCell>
        <mxCell id="_Pwls5BO25hZNGwztqYF-27" value="" style="sketch=0;points=[[0.015,0.015,0],[0.985,0.015,0],[0.985,0.985,0],[0.015,0.985,0],[0.25,0,0],[0.5,0,0],[0.75,0,0],[1,0.25,0],[1,0.5,0],[1,0.75,0],[0.75,1,0],[0.5,1,0],[0.25,1,0],[0,0.75,0],[0,0.5,0],[0,0.25,0]];verticalLabelPosition=bottom;html=1;verticalAlign=top;aspect=fixed;align=center;pointerEvents=1;shape=mxgraph.cisco19.server;fillColor=#D79B00;strokeColor=#D79B00;" vertex="1" parent="_Pwls5BO25hZNGwztqYF-25">
          <mxGeometry x="100.25" width="38.5" height="70" as="geometry" />
        </mxCell>
        <mxCell id="_Pwls5BO25hZNGwztqYF-28" value="1" style="text;html=1;strokeColor=none;fillColor=none;align=center;verticalAlign=middle;whiteSpace=wrap;rounded=0;fontColor=#D79B00;fontStyle=1" vertex="1" parent="_Pwls5BO25hZNGwztqYF-25">
          <mxGeometry y="20" width="60" height="30" as="geometry" />
        </mxCell>
        <mxCell id="_Pwls5BO25hZNGwztqYF-29" value="2" style="text;html=1;strokeColor=none;fillColor=none;align=center;verticalAlign=middle;whiteSpace=wrap;rounded=0;fontColor=#D79B00;fontStyle=1" vertex="1" parent="_Pwls5BO25hZNGwztqYF-25">
          <mxGeometry x="100" y="20" width="60" height="30" as="geometry" />
        </mxCell>
        <mxCell id="_Pwls5BO25hZNGwztqYF-30" value="" style="sketch=0;points=[[0.015,0.015,0],[0.985,0.015,0],[0.985,0.985,0],[0.015,0.985,0],[0.25,0,0],[0.5,0,0],[0.75,0,0],[1,0.25,0],[1,0.5,0],[1,0.75,0],[0.75,1,0],[0.5,1,0],[0.25,1,0],[0,0.75,0],[0,0.5,0],[0,0.25,0]];verticalLabelPosition=bottom;html=1;verticalAlign=top;aspect=fixed;align=center;pointerEvents=1;shape=mxgraph.cisco19.server;fillColor=#D79B00;strokeColor=#D79B00;" vertex="1" parent="_Pwls5BO25hZNGwztqYF-1">
          <mxGeometry x="778.87" y="800" width="38.5" height="70" as="geometry" />
        </mxCell>
        <mxCell id="_Pwls5BO25hZNGwztqYF-31" value="3" style="text;html=1;strokeColor=none;fillColor=none;align=center;verticalAlign=middle;whiteSpace=wrap;rounded=0;fontColor=#D79B00;fontStyle=1" vertex="1" parent="_Pwls5BO25hZNGwztqYF-1">
          <mxGeometry x="778.87" y="820" width="60" height="30" as="geometry" />
        </mxCell>
        <mxCell id="_Pwls5BO25hZNGwztqYF-32" value="po1001" style="ellipse;whiteSpace=wrap;html=1;fillColor=#ffe6cc;strokeColor=#d79b00;" vertex="1" parent="_Pwls5BO25hZNGwztqYF-1">
          <mxGeometry x="560" y="770" width="80" height="20" as="geometry" />
        </mxCell>
        <mxCell id="_Pwls5BO25hZNGwztqYF-33" value="po1002" style="ellipse;whiteSpace=wrap;html=1;fillColor=#ffe6cc;strokeColor=#d79b00;" vertex="1" parent="_Pwls5BO25hZNGwztqYF-1">
          <mxGeometry x="660" y="770" width="80" height="20" as="geometry" />
        </mxCell>
        <mxCell id="_Pwls5BO25hZNGwztqYF-34" value="po1003" style="ellipse;whiteSpace=wrap;html=1;fillColor=#ffe6cc;strokeColor=#d79b00;" vertex="1" parent="_Pwls5BO25hZNGwztqYF-1">
          <mxGeometry x="758.12" y="770" width="80" height="20" as="geometry" />
        </mxCell>
        <mxCell id="_Pwls5BO25hZNGwztqYF-35" value="&lt;div style=&quot;color: rgb(51, 51, 51); background-color: rgb(245, 245, 245); font-family: Consolas, &amp;quot;Courier New&amp;quot;, monospace; font-size: 6px; line-height: 19px;&quot;&gt;00:00:17:00:01:10:01:00:00:00 &lt;/div&gt;" style="text;html=1;align=center;verticalAlign=middle;resizable=0;points=[];autosize=1;strokeColor=none;fillColor=none;fontSize=6;" vertex="1" parent="_Pwls5BO25hZNGwztqYF-1">
          <mxGeometry x="540" y="780" width="120" height="30" as="geometry" />
        </mxCell>
        <mxCell id="_Pwls5BO25hZNGwztqYF-36" value="&lt;div style=&quot;color: rgb(51, 51, 51); background-color: rgb(245, 245, 245); font-family: Consolas, &amp;quot;Courier New&amp;quot;, monospace; font-size: 6px; line-height: 19px;&quot;&gt;00:00:17:00:01:10:02:00:00:00&lt;/div&gt;" style="text;html=1;align=center;verticalAlign=middle;resizable=0;points=[];autosize=1;strokeColor=none;fillColor=none;fontSize=6;" vertex="1" parent="_Pwls5BO25hZNGwztqYF-1">
          <mxGeometry x="640" y="780" width="120" height="30" as="geometry" />
        </mxCell>
        <mxCell id="_Pwls5BO25hZNGwztqYF-37" value="&lt;div style=&quot;color: rgb(51, 51, 51); background-color: rgb(245, 245, 245); font-family: Consolas, &amp;quot;Courier New&amp;quot;, monospace; font-size: 6px; line-height: 19px;&quot;&gt;00:00:17:00:01:10:03:00:00:00&lt;/div&gt;" style="text;html=1;align=center;verticalAlign=middle;resizable=0;points=[];autosize=1;strokeColor=none;fillColor=none;fontSize=6;" vertex="1" parent="_Pwls5BO25hZNGwztqYF-1">
          <mxGeometry x="740" y="780" width="120" height="30" as="geometry" />
        </mxCell>
        <mxCell id="_Pwls5BO25hZNGwztqYF-38" value="" style="shadow=0;dashed=0;html=1;strokeColor=#d79b00;fillColor=#ffe6cc;labelPosition=center;verticalLabelPosition=bottom;verticalAlign=top;align=center;outlineConnect=0;shape=mxgraph.veeam.2d.virtual_machine;" vertex="1" parent="_Pwls5BO25hZNGwztqYF-1">
          <mxGeometry x="580" y="900" width="40" height="40" as="geometry" />
        </mxCell>
        <mxCell id="_Pwls5BO25hZNGwztqYF-39" value="" style="shadow=0;dashed=0;html=1;strokeColor=#d79b00;fillColor=#ffe6cc;labelPosition=center;verticalLabelPosition=bottom;verticalAlign=top;align=center;outlineConnect=0;shape=mxgraph.veeam.2d.virtual_machine;" vertex="1" parent="_Pwls5BO25hZNGwztqYF-1">
          <mxGeometry x="680" y="900" width="40" height="40" as="geometry" />
        </mxCell>
        <mxCell id="_Pwls5BO25hZNGwztqYF-40" value="" style="shadow=0;dashed=0;html=1;strokeColor=#d79b00;fillColor=#ffe6cc;labelPosition=center;verticalLabelPosition=bottom;verticalAlign=top;align=center;outlineConnect=0;shape=mxgraph.veeam.2d.virtual_machine;" vertex="1" parent="_Pwls5BO25hZNGwztqYF-1">
          <mxGeometry x="780" y="900" width="40" height="40" as="geometry" />
        </mxCell>
        <mxCell id="_Pwls5BO25hZNGwztqYF-41" value="" style="endArrow=none;html=1;rounded=0;fillColor=#dae8fc;strokeColor=#D79B00;exitX=0.5;exitY=1;exitDx=0;exitDy=0;exitPerimeter=0;" edge="1" parent="_Pwls5BO25hZNGwztqYF-1" source="_Pwls5BO25hZNGwztqYF-26" target="_Pwls5BO25hZNGwztqYF-38">
          <mxGeometry width="50" height="50" relative="1" as="geometry">
            <mxPoint x="582" y="783" as="sourcePoint" />
            <mxPoint x="565" y="710" as="targetPoint" />
          </mxGeometry>
        </mxCell>
        <mxCell id="_Pwls5BO25hZNGwztqYF-42" value="" style="endArrow=none;html=1;rounded=0;fillColor=#dae8fc;strokeColor=#D79B00;exitX=0.5;exitY=1;exitDx=0;exitDy=0;dashed=1;exitPerimeter=0;" edge="1" parent="_Pwls5BO25hZNGwztqYF-1" source="_Pwls5BO25hZNGwztqYF-27" target="_Pwls5BO25hZNGwztqYF-39">
          <mxGeometry width="50" height="50" relative="1" as="geometry">
            <mxPoint x="682" y="783" as="sourcePoint" />
            <mxPoint x="565" y="710" as="targetPoint" />
          </mxGeometry>
        </mxCell>
        <mxCell id="_Pwls5BO25hZNGwztqYF-43" value="" style="endArrow=none;html=1;rounded=0;fillColor=#dae8fc;strokeColor=#D79B00;exitX=0.5;exitY=1;exitDx=0;exitDy=0;dashed=1;exitPerimeter=0;" edge="1" parent="_Pwls5BO25hZNGwztqYF-1" source="_Pwls5BO25hZNGwztqYF-30" target="_Pwls5BO25hZNGwztqYF-40">
          <mxGeometry width="50" height="50" relative="1" as="geometry">
            <mxPoint x="710" y="880" as="sourcePoint" />
            <mxPoint x="710" y="910" as="targetPoint" />
          </mxGeometry>
        </mxCell>
        <mxCell id="_Pwls5BO25hZNGwztqYF-44" value="&lt;div style=&quot;color: rgb(51, 51, 51); background-color: rgb(245, 245, 245); font-family: Consolas, &amp;quot;Courier New&amp;quot;, monospace; font-size: 6px; line-height: 19px;&quot;&gt;0050.5681.4297&lt;/div&gt;" style="text;html=1;align=center;verticalAlign=middle;resizable=0;points=[];autosize=1;strokeColor=none;fillColor=none;fontSize=6;" vertex="1" parent="_Pwls5BO25hZNGwztqYF-1">
          <mxGeometry x="565" y="880" width="70" height="30" as="geometry" />
        </mxCell>
        <mxCell id="_Pwls5BO25hZNGwztqYF-45" value="&lt;div style=&quot;color: rgb(51, 51, 51); background-color: rgb(245, 245, 245); font-family: Consolas, &amp;quot;Courier New&amp;quot;, monospace; font-size: 6px; line-height: 19px;&quot;&gt;0050.5681.2a49&lt;/div&gt;" style="text;html=1;align=center;verticalAlign=middle;resizable=0;points=[];autosize=1;strokeColor=none;fillColor=none;fontSize=6;" vertex="1" parent="_Pwls5BO25hZNGwztqYF-1">
          <mxGeometry x="665" y="880" width="70" height="30" as="geometry" />
        </mxCell>
        <mxCell id="_Pwls5BO25hZNGwztqYF-46" value="" style="endArrow=none;html=1;rounded=0;fillColor=#d5e8d4;strokeColor=#82b366;entryX=0.5;entryY=1;entryDx=0;entryDy=0;entryPerimeter=0;exitX=0;exitY=0;exitDx=0;exitDy=0;" edge="1" parent="_Pwls5BO25hZNGwztqYF-1" source="_Pwls5BO25hZNGwztqYF-61">
          <mxGeometry width="50" height="50" relative="1" as="geometry">
            <mxPoint x="1400" y="670" as="sourcePoint" />
            <mxPoint x="1075" y="700" as="targetPoint" />
          </mxGeometry>
        </mxCell>
        <mxCell id="_Pwls5BO25hZNGwztqYF-47" value="" style="endArrow=none;html=1;rounded=0;fillColor=#d5e8d4;strokeColor=#82b366;entryX=0.5;entryY=1;entryDx=0;entryDy=0;entryPerimeter=0;exitX=1;exitY=0;exitDx=0;exitDy=0;" edge="1" parent="_Pwls5BO25hZNGwztqYF-1" source="_Pwls5BO25hZNGwztqYF-61">
          <mxGeometry width="50" height="50" relative="1" as="geometry">
            <mxPoint x="1470" y="820" as="sourcePoint" />
            <mxPoint x="1345" y="700" as="targetPoint" />
          </mxGeometry>
        </mxCell>
        <mxCell id="_Pwls5BO25hZNGwztqYF-48" value="" style="endArrow=none;html=1;rounded=0;fillColor=#d5e8d4;strokeColor=#82b366;entryX=0.5;entryY=1;entryDx=0;entryDy=0;entryPerimeter=0;exitX=1;exitY=0;exitDx=0;exitDy=0;dashed=1;" edge="1" parent="_Pwls5BO25hZNGwztqYF-1" source="_Pwls5BO25hZNGwztqYF-62">
          <mxGeometry width="50" height="50" relative="1" as="geometry">
            <mxPoint x="1615" y="800" as="sourcePoint" />
            <mxPoint x="1345" y="700" as="targetPoint" />
          </mxGeometry>
        </mxCell>
        <mxCell id="_Pwls5BO25hZNGwztqYF-49" value="" style="endArrow=none;html=1;rounded=0;fillColor=#d5e8d4;strokeColor=#82b366;entryX=0.5;entryY=1;entryDx=0;entryDy=0;entryPerimeter=0;exitX=0;exitY=0;exitDx=0;exitDy=0;dashed=1;" edge="1" parent="_Pwls5BO25hZNGwztqYF-1" source="_Pwls5BO25hZNGwztqYF-62">
          <mxGeometry width="50" height="50" relative="1" as="geometry">
            <mxPoint x="1556" y="820" as="sourcePoint" />
            <mxPoint x="1075" y="700" as="targetPoint" />
          </mxGeometry>
        </mxCell>
        <mxCell id="_Pwls5BO25hZNGwztqYF-50" value="" style="endArrow=none;html=1;rounded=0;fillColor=#d5e8d4;strokeColor=#82b366;entryX=0.5;entryY=1;entryDx=0;entryDy=0;entryPerimeter=0;exitX=1;exitY=0;exitDx=0;exitDy=0;dashed=1;" edge="1" parent="_Pwls5BO25hZNGwztqYF-1" source="_Pwls5BO25hZNGwztqYF-63">
          <mxGeometry width="50" height="50" relative="1" as="geometry">
            <mxPoint x="1514" y="820" as="sourcePoint" />
            <mxPoint x="1345" y="700" as="targetPoint" />
          </mxGeometry>
        </mxCell>
        <mxCell id="_Pwls5BO25hZNGwztqYF-51" value="" style="endArrow=none;html=1;rounded=0;fillColor=#d5e8d4;strokeColor=#82b366;exitX=0;exitY=0;exitDx=0;exitDy=0;dashed=1;entryX=0.5;entryY=1;entryDx=0;entryDy=0;entryPerimeter=0;" edge="1" parent="_Pwls5BO25hZNGwztqYF-1" source="_Pwls5BO25hZNGwztqYF-63">
          <mxGeometry width="50" height="50" relative="1" as="geometry">
            <mxPoint x="1556" y="820" as="sourcePoint" />
            <mxPoint x="1075" y="700" as="targetPoint" />
          </mxGeometry>
        </mxCell>
        <mxCell id="_Pwls5BO25hZNGwztqYF-52" value="" style="group;strokeColor=none;" vertex="1" connectable="0" parent="_Pwls5BO25hZNGwztqYF-1">
          <mxGeometry x="1100" y="800" width="345.75" height="70" as="geometry" />
        </mxCell>
        <mxCell id="_Pwls5BO25hZNGwztqYF-53" value="" style="sketch=0;points=[[0.015,0.015,0],[0.985,0.015,0],[0.985,0.985,0],[0.015,0.985,0],[0.25,0,0],[0.5,0,0],[0.75,0,0],[1,0.25,0],[1,0.5,0],[1,0.75,0],[0.75,1,0],[0.5,1,0],[0.25,1,0],[0,0.75,0],[0,0.5,0],[0,0.25,0]];verticalLabelPosition=bottom;html=1;verticalAlign=top;aspect=fixed;align=center;pointerEvents=1;shape=mxgraph.cisco19.server;fillColor=#82B366;strokeColor=none;" vertex="1" parent="_Pwls5BO25hZNGwztqYF-52">
          <mxGeometry width="38.5" height="70" as="geometry" />
        </mxCell>
        <mxCell id="_Pwls5BO25hZNGwztqYF-54" value="" style="group;strokeColor=none;" vertex="1" connectable="0" parent="_Pwls5BO25hZNGwztqYF-52">
          <mxGeometry x="100" width="245.75" height="70" as="geometry" />
        </mxCell>
        <mxCell id="_Pwls5BO25hZNGwztqYF-55" value="" style="sketch=0;points=[[0.015,0.015,0],[0.985,0.015,0],[0.985,0.985,0],[0.015,0.985,0],[0.25,0,0],[0.5,0,0],[0.75,0,0],[1,0.25,0],[1,0.5,0],[1,0.75,0],[0.75,1,0],[0.5,1,0],[0.25,1,0],[0,0.75,0],[0,0.5,0],[0,0.25,0]];verticalLabelPosition=bottom;html=1;verticalAlign=top;aspect=fixed;align=center;pointerEvents=1;shape=mxgraph.cisco19.server;fillColor=#82B366;strokeColor=none;" vertex="1" parent="_Pwls5BO25hZNGwztqYF-54">
          <mxGeometry width="38.5" height="70" as="geometry" />
        </mxCell>
        <mxCell id="_Pwls5BO25hZNGwztqYF-56" value="" style="group;strokeColor=none;" vertex="1" connectable="0" parent="_Pwls5BO25hZNGwztqYF-54">
          <mxGeometry x="100" width="145.75" height="70" as="geometry" />
        </mxCell>
        <mxCell id="_Pwls5BO25hZNGwztqYF-57" value="" style="sketch=0;points=[[0.015,0.015,0],[0.985,0.015,0],[0.985,0.985,0],[0.015,0.985,0],[0.25,0,0],[0.5,0,0],[0.75,0,0],[1,0.25,0],[1,0.5,0],[1,0.75,0],[0.75,1,0],[0.5,1,0],[0.25,1,0],[0,0.75,0],[0,0.5,0],[0,0.25,0]];verticalLabelPosition=bottom;html=1;verticalAlign=top;aspect=fixed;align=center;pointerEvents=1;shape=mxgraph.cisco19.server;fillColor=#82B366;strokeColor=none;" vertex="1" parent="_Pwls5BO25hZNGwztqYF-56">
          <mxGeometry width="38.5" height="70" as="geometry" />
        </mxCell>
        <mxCell id="_Pwls5BO25hZNGwztqYF-58" value="3" style="text;html=1;strokeColor=none;fillColor=none;align=center;verticalAlign=middle;whiteSpace=wrap;rounded=0;fontColor=#82B366;fontStyle=1" vertex="1" parent="_Pwls5BO25hZNGwztqYF-56">
          <mxGeometry y="20" width="60" height="30" as="geometry" />
        </mxCell>
        <mxCell id="_Pwls5BO25hZNGwztqYF-59" value="2" style="text;html=1;strokeColor=none;fillColor=none;align=center;verticalAlign=middle;whiteSpace=wrap;rounded=0;fontColor=#82B366;fontStyle=1" vertex="1" parent="_Pwls5BO25hZNGwztqYF-54">
          <mxGeometry y="20" width="60" height="30" as="geometry" />
        </mxCell>
        <mxCell id="_Pwls5BO25hZNGwztqYF-60" value="1" style="text;html=1;strokeColor=none;fillColor=none;align=center;verticalAlign=middle;whiteSpace=wrap;rounded=0;fontColor=#82B366;fontStyle=1" vertex="1" parent="_Pwls5BO25hZNGwztqYF-52">
          <mxGeometry y="20" width="60" height="30" as="geometry" />
        </mxCell>
        <mxCell id="_Pwls5BO25hZNGwztqYF-61" value="po1001" style="ellipse;whiteSpace=wrap;html=1;fillColor=#d5e8d4;strokeColor=#82b366;" vertex="1" parent="_Pwls5BO25hZNGwztqYF-1">
          <mxGeometry x="1080" y="770" width="80" height="20" as="geometry" />
        </mxCell>
        <mxCell id="_Pwls5BO25hZNGwztqYF-62" value="po1002" style="ellipse;whiteSpace=wrap;html=1;fillColor=#d5e8d4;strokeColor=#82b366;" vertex="1" parent="_Pwls5BO25hZNGwztqYF-1">
          <mxGeometry x="1180" y="770" width="80" height="20" as="geometry" />
        </mxCell>
        <mxCell id="_Pwls5BO25hZNGwztqYF-63" value="po1003" style="ellipse;whiteSpace=wrap;html=1;fillColor=#d5e8d4;strokeColor=#82b366;" vertex="1" parent="_Pwls5BO25hZNGwztqYF-1">
          <mxGeometry x="1278.12" y="770" width="80" height="20" as="geometry" />
        </mxCell>
        <mxCell id="_Pwls5BO25hZNGwztqYF-64" value="&lt;div style=&quot;color: rgb(51, 51, 51); background-color: rgb(245, 245, 245); font-family: Consolas, &amp;quot;Courier New&amp;quot;, monospace; font-size: 6px; line-height: 19px;&quot;&gt;00:00:17:00:02:10:01:00:00:00 &lt;/div&gt;" style="text;html=1;align=center;verticalAlign=middle;resizable=0;points=[];autosize=1;strokeColor=none;fillColor=none;fontSize=6;" vertex="1" parent="_Pwls5BO25hZNGwztqYF-1">
          <mxGeometry x="1060" y="780" width="120" height="30" as="geometry" />
        </mxCell>
        <mxCell id="_Pwls5BO25hZNGwztqYF-65" value="&lt;div style=&quot;color: rgb(51, 51, 51); background-color: rgb(245, 245, 245); font-family: Consolas, &amp;quot;Courier New&amp;quot;, monospace; font-size: 6px; line-height: 19px;&quot;&gt;00:00:17:00:02:10:02:00:00:00&lt;/div&gt;" style="text;html=1;align=center;verticalAlign=middle;resizable=0;points=[];autosize=1;strokeColor=none;fillColor=none;fontSize=6;" vertex="1" parent="_Pwls5BO25hZNGwztqYF-1">
          <mxGeometry x="1160" y="780" width="120" height="30" as="geometry" />
        </mxCell>
        <mxCell id="_Pwls5BO25hZNGwztqYF-66" value="&lt;div style=&quot;color: rgb(51, 51, 51); background-color: rgb(245, 245, 245); font-family: Consolas, &amp;quot;Courier New&amp;quot;, monospace; font-size: 6px; line-height: 19px;&quot;&gt;00:00:17:00:02:10:03:00:00:00&lt;/div&gt;" style="text;html=1;align=center;verticalAlign=middle;resizable=0;points=[];autosize=1;strokeColor=none;fillColor=none;fontSize=6;" vertex="1" parent="_Pwls5BO25hZNGwztqYF-1">
          <mxGeometry x="1260" y="780" width="120" height="30" as="geometry" />
        </mxCell>
        <mxCell id="_Pwls5BO25hZNGwztqYF-67" value="" style="shadow=0;dashed=0;html=1;strokeColor=#82b366;fillColor=#d5e8d4;labelPosition=center;verticalLabelPosition=bottom;verticalAlign=top;align=center;outlineConnect=0;shape=mxgraph.veeam.2d.virtual_machine;" vertex="1" parent="_Pwls5BO25hZNGwztqYF-1">
          <mxGeometry x="1100" y="900" width="40" height="40" as="geometry" />
        </mxCell>
        <mxCell id="_Pwls5BO25hZNGwztqYF-68" value="" style="shadow=0;dashed=0;html=1;strokeColor=#82b366;fillColor=#d5e8d4;labelPosition=center;verticalLabelPosition=bottom;verticalAlign=top;align=center;outlineConnect=0;shape=mxgraph.veeam.2d.virtual_machine;" vertex="1" parent="_Pwls5BO25hZNGwztqYF-1">
          <mxGeometry x="1200" y="900" width="40" height="40" as="geometry" />
        </mxCell>
        <mxCell id="_Pwls5BO25hZNGwztqYF-69" value="" style="shadow=0;dashed=0;html=1;strokeColor=#82b366;fillColor=#d5e8d4;labelPosition=center;verticalLabelPosition=bottom;verticalAlign=top;align=center;outlineConnect=0;shape=mxgraph.veeam.2d.virtual_machine;" vertex="1" parent="_Pwls5BO25hZNGwztqYF-1">
          <mxGeometry x="1300" y="900" width="40" height="40" as="geometry" />
        </mxCell>
        <mxCell id="_Pwls5BO25hZNGwztqYF-70" value="" style="endArrow=none;html=1;rounded=0;fillColor=#d5e8d4;strokeColor=#82b366;exitX=0.5;exitY=1;exitDx=0;exitDy=0;exitPerimeter=0;" edge="1" parent="_Pwls5BO25hZNGwztqYF-1" target="_Pwls5BO25hZNGwztqYF-67">
          <mxGeometry width="50" height="50" relative="1" as="geometry">
            <mxPoint x="1119.25" y="870" as="sourcePoint" />
            <mxPoint x="1085" y="710" as="targetPoint" />
          </mxGeometry>
        </mxCell>
        <mxCell id="_Pwls5BO25hZNGwztqYF-71" value="" style="endArrow=none;html=1;rounded=0;fillColor=#d5e8d4;strokeColor=#82b366;exitX=0.5;exitY=1;exitDx=0;exitDy=0;dashed=1;exitPerimeter=0;" edge="1" parent="_Pwls5BO25hZNGwztqYF-1" target="_Pwls5BO25hZNGwztqYF-68">
          <mxGeometry width="50" height="50" relative="1" as="geometry">
            <mxPoint x="1219.5" y="870" as="sourcePoint" />
            <mxPoint x="1085" y="710" as="targetPoint" />
          </mxGeometry>
        </mxCell>
        <mxCell id="_Pwls5BO25hZNGwztqYF-72" value="" style="endArrow=none;html=1;rounded=0;fillColor=#d5e8d4;strokeColor=#82b366;exitX=0.5;exitY=1;exitDx=0;exitDy=0;dashed=1;exitPerimeter=0;" edge="1" parent="_Pwls5BO25hZNGwztqYF-1" target="_Pwls5BO25hZNGwztqYF-69">
          <mxGeometry width="50" height="50" relative="1" as="geometry">
            <mxPoint x="1318.12" y="870" as="sourcePoint" />
            <mxPoint x="1230" y="910" as="targetPoint" />
          </mxGeometry>
        </mxCell>
        <mxCell id="_Pwls5BO25hZNGwztqYF-73" value="&lt;div style=&quot;color: rgb(51, 51, 51); background-color: rgb(245, 245, 245); font-family: Consolas, &amp;quot;Courier New&amp;quot;, monospace; font-size: 6px; line-height: 19px;&quot;&gt;&lt;div style=&quot;font-size: 6px; line-height: 19px;&quot;&gt;0050.5681.c516&lt;/div&gt;&lt;/div&gt;" style="text;html=1;align=center;verticalAlign=middle;resizable=0;points=[];autosize=1;strokeColor=none;fillColor=none;fontSize=6;" vertex="1" parent="_Pwls5BO25hZNGwztqYF-1">
          <mxGeometry x="1085" y="880" width="70" height="30" as="geometry" />
        </mxCell>
        <mxCell id="_Pwls5BO25hZNGwztqYF-74" value="&lt;div style=&quot;color: rgb(51, 51, 51); background-color: rgb(245, 245, 245); font-family: Consolas, &amp;quot;Courier New&amp;quot;, monospace; font-size: 6px; line-height: 19px;&quot;&gt;&lt;div style=&quot;font-size: 6px; line-height: 19px;&quot;&gt;0050.5681.df13&lt;/div&gt;&lt;/div&gt;" style="text;html=1;align=center;verticalAlign=middle;resizable=0;points=[];autosize=1;strokeColor=none;fillColor=none;fontSize=6;" vertex="1" parent="_Pwls5BO25hZNGwztqYF-1">
          <mxGeometry x="1185" y="880" width="70" height="30" as="geometry" />
        </mxCell>
        <mxCell id="R0d4Mg-Li6_QWFK0mkLn-0" value="&lt;div style=&quot;background-color: rgb(245, 245, 245); font-family: Consolas, &amp;quot;Courier New&amp;quot;, monospace; font-size: 14px; line-height: 19px;&quot;&gt;&lt;div style=&quot;line-height: 19px;&quot;&gt;l3vni 3000060&lt;/div&gt;&lt;/div&gt;" style="rounded=1;whiteSpace=wrap;html=1;fillColor=#f5f5f5;strokeColor=#666666;fontColor=#333333;" vertex="1" parent="_Pwls5BO25hZNGwztqYF-1">
          <mxGeometry x="530" y="560" width="840" height="30" as="geometry" />
        </mxCell>
        <mxCell id="R0d4Mg-Li6_QWFK0mkLn-3" value="10.17.2.2" style="text;html=1;align=center;verticalAlign=middle;resizable=0;points=[];autosize=1;strokeColor=none;fillColor=none;" vertex="1" parent="_Pwls5BO25hZNGwztqYF-1">
          <mxGeometry x="565" y="940" width="70" height="30" as="geometry" />
        </mxCell>
        <mxCell id="R0d4Mg-Li6_QWFK0mkLn-4" value="10.17.2.3" style="text;html=1;align=center;verticalAlign=middle;resizable=0;points=[];autosize=1;strokeColor=none;fillColor=none;" vertex="1" parent="_Pwls5BO25hZNGwztqYF-1">
          <mxGeometry x="665" y="940" width="70" height="30" as="geometry" />
        </mxCell>
        <mxCell id="R0d4Mg-Li6_QWFK0mkLn-5" value="10.17.3.2" style="text;html=1;align=center;verticalAlign=middle;resizable=0;points=[];autosize=1;strokeColor=none;fillColor=none;" vertex="1" parent="_Pwls5BO25hZNGwztqYF-1">
          <mxGeometry x="1085" y="940" width="70" height="30" as="geometry" />
        </mxCell>
        <mxCell id="R0d4Mg-Li6_QWFK0mkLn-6" value="10.17.3.3" style="text;html=1;align=center;verticalAlign=middle;resizable=0;points=[];autosize=1;strokeColor=none;fillColor=none;" vertex="1" parent="_Pwls5BO25hZNGwztqYF-1">
          <mxGeometry x="1185" y="940" width="70" height="30" as="geometry" />
        </mxCell>
      </root>
    </mxGraphModel>
  </diagram>
</mxfile>
